<svg id="svg" version="1.1" xmlns="http://www.w3.org/2000/svg" xmlns:xlink="http://www.w3.org/1999/xlink" width="300" height="70" viewBox="0, 0, 400,90"><g id="svgg"><path id="path0" d="M226.963 0.789 C 227.355 0.824,227.955 0.824,228.296 0.788 C 228.637 0.752,228.317 0.723,227.583 0.724 C 226.850 0.724,226.571 0.754,226.963 0.789 M224.333 5.917 C 224.333 6.054,224.408 6.167,224.500 6.167 C 224.592 6.167,224.667 6.054,224.667 5.917 C 224.667 5.779,224.592 5.667,224.500 5.667 C 224.408 5.667,224.333 5.779,224.333 5.917 M223.540 8.295 C 223.294 8.817,223.280 9.000,223.487 9.000 C 223.637 9.000,223.922 8.033,223.806 7.917 C 223.773 7.884,223.654 8.055,223.540 8.295 M222.104 12.285 C 222.047 12.449,221.956 12.677,221.903 12.792 C 221.849 12.906,221.879 13.000,221.968 13.000 C 222.057 13.000,222.180 12.804,222.240 12.564 C 222.367 12.060,222.260 11.841,222.104 12.285 M221.042 13.282 C 221.202 13.323,221.465 13.323,221.625 13.282 C 221.785 13.240,221.654 13.205,221.333 13.205 C 221.012 13.205,220.881 13.240,221.042 13.282 M217.667 13.500 C 217.667 13.597,218.219 13.667,218.990 13.667 C 219.718 13.667,220.360 13.592,220.417 13.500 C 220.482 13.394,220.002 13.333,219.093 13.333 C 218.253 13.333,217.667 13.402,217.667 13.500 M234.500 13.500 C 234.500 13.597,235.059 13.667,235.843 13.667 C 236.696 13.667,237.149 13.606,237.083 13.500 C 237.027 13.408,236.422 13.333,235.740 13.333 C 235.024 13.333,234.500 13.404,234.500 13.500 M212.375 13.782 C 212.535 13.823,212.798 13.823,212.958 13.782 C 213.119 13.740,212.987 13.705,212.667 13.705 C 212.346 13.705,212.215 13.740,212.375 13.782 M241.208 13.782 C 241.369 13.823,241.631 13.823,241.792 13.782 C 241.952 13.740,241.821 13.705,241.500 13.705 C 241.179 13.705,241.048 13.740,241.208 13.782 M208.917 14.000 C 208.855 14.099,209.054 14.167,209.407 14.167 C 209.733 14.167,210.000 14.092,210.000 14.000 C 210.000 13.908,209.779 13.833,209.510 13.833 C 209.240 13.833,208.973 13.908,208.917 14.000 M244.167 14.000 C 244.167 14.094,244.639 14.167,245.250 14.167 L 246.333 14.167 246.333 15.323 C 246.333 15.960,246.259 16.526,246.168 16.583 C 246.076 16.639,245.917 16.850,245.813 17.051 C 245.658 17.350,245.719 17.327,246.145 16.927 C 246.714 16.393,246.925 14.492,246.467 14.033 C 246.224 13.791,244.167 13.761,244.167 14.000 M209.333 16.917 C 209.333 17.001,209.589 17.261,210.389 17.987 C 211.065 18.602,210.919 18.296,210.167 17.520 C 209.538 16.872,209.333 16.724,209.333 16.917 M225.072 16.990 C 224.987 17.073,224.692 17.173,224.417 17.212 C 223.959 17.277,223.968 17.285,224.532 17.308 C 224.870 17.322,225.196 17.253,225.257 17.156 C 225.403 16.919,225.269 16.799,225.072 16.990 M229.833 16.997 C 229.833 17.197,230.571 17.398,230.868 17.279 C 230.986 17.232,230.877 17.187,230.625 17.180 C 230.373 17.173,230.167 17.092,230.167 17.000 C 230.167 16.908,230.092 16.833,230.000 16.833 C 229.908 16.833,229.833 16.907,229.833 16.997 M218.833 17.500 C 218.833 17.596,219.358 17.667,220.073 17.667 C 220.756 17.667,221.360 17.592,221.417 17.500 C 221.482 17.394,221.030 17.333,220.177 17.333 C 219.392 17.333,218.833 17.403,218.833 17.500 M233.583 17.500 C 233.640 17.592,234.207 17.667,234.843 17.667 C 235.503 17.667,236.000 17.595,236.000 17.500 C 236.000 17.404,235.469 17.333,234.740 17.333 C 233.943 17.333,233.518 17.395,233.583 17.500 M244.701 17.782 C 244.184 18.425,244.397 18.474,245.028 17.857 C 245.375 17.517,245.475 17.333,245.313 17.333 C 245.175 17.333,244.900 17.535,244.701 17.782 M2.667 18.000 C 2.667 18.110,9.948 18.167,24.177 18.167 C 38.474 18.167,45.652 18.111,45.583 18.000 C 45.441 17.769,2.667 17.769,2.667 18.000 M65.833 18.000 C 65.833 18.109,69.500 18.167,76.500 18.167 C 83.500 18.167,87.167 18.109,87.167 18.000 C 87.167 17.891,83.500 17.833,76.500 17.833 C 69.500 17.833,65.833 17.891,65.833 18.000 M211.167 18.435 C 211.167 18.585,211.896 19.327,212.047 19.330 C 212.118 19.332,212.010 19.108,211.807 18.833 C 211.467 18.374,211.167 18.187,211.167 18.435 M235.685 19.185 C 235.465 19.363,235.328 19.550,235.379 19.601 C 235.430 19.653,235.635 19.532,235.833 19.333 C 236.300 18.866,236.201 18.767,235.685 19.185 M243.151 19.155 C 242.621 19.740,242.607 19.908,243.122 19.500 C 243.626 19.101,243.808 18.818,243.542 18.847 C 243.473 18.855,243.297 18.993,243.151 19.155 M212.767 19.875 C 212.862 20.096,213.833 20.917,213.833 20.775 C 213.833 20.678,212.838 19.667,212.742 19.667 C 212.707 19.667,212.717 19.760,212.767 19.875 M220.333 19.909 C 220.333 20.023,220.970 20.667,221.083 20.667 C 221.129 20.667,221.164 20.610,221.161 20.542 C 221.155 20.398,220.333 19.770,220.333 19.909 M233.930 20.687 C 233.754 20.859,233.648 21.037,233.695 21.084 C 233.742 21.130,233.916 21.018,234.083 20.833 C 234.475 20.400,234.349 20.280,233.930 20.687 M241.401 20.691 C 241.085 21.047,241.085 21.047,241.458 20.852 C 241.665 20.743,241.833 20.583,241.833 20.494 C 241.833 20.257,241.754 20.294,241.401 20.691 M214.670 21.417 C 214.673 21.606,215.480 22.413,215.568 22.314 C 215.599 22.279,215.409 22.025,215.146 21.750 C 214.883 21.475,214.668 21.325,214.670 21.417 M240.135 21.625 C 239.832 21.977,239.621 22.333,239.716 22.333 C 239.823 22.333,240.667 21.527,240.667 21.425 C 240.667 21.235,240.375 21.344,240.135 21.625 M216.343 22.958 C 216.352 23.090,217.333 23.911,217.333 23.787 C 217.333 23.678,216.529 22.833,216.425 22.833 C 216.374 22.833,216.337 22.890,216.343 22.958 M238.366 23.177 C 238.168 23.494,238.177 23.506,238.492 23.337 C 238.680 23.237,238.833 23.083,238.833 22.994 C 238.833 22.721,238.591 22.816,238.366 23.177 M236.833 24.417 C 236.664 24.620,236.673 24.667,236.878 24.667 C 237.017 24.667,237.174 24.554,237.227 24.417 C 237.280 24.279,237.259 24.167,237.182 24.167 C 237.104 24.167,236.947 24.279,236.833 24.417 M218.167 25.306 C 218.167 25.504,218.092 25.667,218.000 25.667 C 217.908 25.667,217.833 25.779,217.833 25.917 C 217.833 26.054,217.902 26.167,217.987 26.167 C 218.167 26.167,218.411 25.188,218.266 25.044 C 218.211 24.989,218.167 25.107,218.167 25.306 M59.169 25.946 C 59.174 26.202,59.481 26.574,59.594 26.461 C 59.656 26.400,59.585 26.228,59.437 26.079 C 59.288 25.931,59.168 25.871,59.169 25.946 M237.084 26.332 C 236.995 26.477,237.015 26.588,237.137 26.629 C 237.245 26.665,237.333 26.801,237.333 26.931 C 237.333 27.060,237.411 27.167,237.506 27.167 C 237.616 27.167,237.624 27.062,237.528 26.875 C 237.446 26.715,237.344 26.475,237.303 26.342 C 237.239 26.137,237.206 26.135,237.084 26.332 M225.278 27.278 C 225.118 27.437,225.141 27.667,225.316 27.667 C 225.397 27.667,225.508 27.554,225.560 27.417 C 225.658 27.163,225.480 27.075,225.278 27.278 M229.746 27.437 C 229.894 27.585,230.066 27.656,230.128 27.594 C 230.190 27.532,230.130 27.412,229.995 27.327 C 229.601 27.078,229.453 27.143,229.746 27.437 M217.333 27.917 C 217.333 28.054,217.408 28.167,217.500 28.167 C 217.592 28.167,217.667 28.054,217.667 27.917 C 217.667 27.779,217.592 27.667,217.500 27.667 C 217.408 27.667,217.333 27.779,217.333 27.917 M230.434 27.903 C 230.490 28.048,230.609 28.167,230.698 28.167 C 230.917 28.167,230.780 27.788,230.531 27.705 C 230.409 27.664,230.372 27.740,230.434 27.903 M223.778 28.278 C 223.618 28.437,223.641 28.667,223.816 28.667 C 223.897 28.667,224.008 28.554,224.060 28.417 C 224.158 28.163,223.980 28.075,223.778 28.278 M61.255 30.000 C 61.398 30.498,61.467 30.589,61.600 30.455 C 61.656 30.400,61.574 30.181,61.418 29.969 L 61.136 29.583 61.255 30.000 M216.444 31.444 C 216.272 31.617,216.314 32.167,216.500 32.167 C 216.592 32.167,216.667 31.979,216.667 31.750 C 216.667 31.314,216.628 31.261,216.444 31.444 M61.833 32.083 C 61.833 32.313,61.908 32.500,62.000 32.500 C 62.092 32.500,62.167 32.313,62.167 32.083 C 62.167 31.854,62.092 31.667,62.000 31.667 C 61.908 31.667,61.833 31.854,61.833 32.083 M228.205 32.031 C 228.241 32.140,228.360 32.259,228.469 32.295 C 228.591 32.336,228.628 32.260,228.566 32.097 C 228.449 31.794,228.105 31.731,228.205 32.031 M225.934 32.597 C 225.872 32.760,225.909 32.836,226.031 32.795 C 226.280 32.712,226.417 32.333,226.198 32.333 C 226.109 32.333,225.990 32.452,225.934 32.597 M238.833 32.917 C 238.833 33.054,238.908 33.167,239.000 33.167 C 239.092 33.167,239.167 33.054,239.167 32.917 C 239.167 32.779,239.092 32.667,239.000 32.667 C 238.908 32.667,238.833 32.779,238.833 32.917 M62.116 33.625 C 62.066 33.877,62.095 34.155,62.179 34.242 C 62.274 34.339,62.333 34.163,62.333 33.783 C 62.333 33.053,62.241 32.986,62.116 33.625 M215.922 33.549 C 215.851 33.713,215.839 33.894,215.896 33.952 C 216.065 34.121,216.202 33.883,216.124 33.555 C 216.055 33.264,216.046 33.263,215.922 33.549 M36.917 34.500 C 36.973 34.592,37.128 34.667,37.260 34.667 C 37.392 34.667,37.500 34.592,37.500 34.500 C 37.500 34.408,37.346 34.333,37.157 34.333 C 36.968 34.333,36.860 34.408,36.917 34.500 M62.333 36.333 C 62.333 37.415,62.393 37.983,62.500 37.917 C 62.592 37.860,62.667 37.148,62.667 36.333 C 62.667 35.519,62.592 34.807,62.500 34.750 C 62.393 34.684,62.333 35.252,62.333 36.333 M38.833 35.400 C 38.833 35.535,40.047 36.675,40.117 36.606 C 40.156 36.566,39.919 36.263,39.589 35.933 C 39.031 35.375,38.833 35.236,38.833 35.400 M215.444 35.444 C 215.264 35.624,215.316 37.833,215.500 37.833 C 215.596 37.833,215.667 37.306,215.667 36.583 C 215.667 35.328,215.649 35.240,215.444 35.444 M233.205 35.531 C 233.241 35.640,233.360 35.759,233.469 35.795 C 233.591 35.836,233.628 35.760,233.566 35.597 C 233.449 35.294,233.105 35.231,233.205 35.531 M239.661 36.917 L 239.583 38.083 238.333 38.178 L 237.083 38.273 238.380 38.303 C 239.886 38.338,239.875 38.349,239.795 36.816 L 239.739 35.750 239.661 36.917 M234.705 36.531 C 234.741 36.640,234.860 36.759,234.969 36.795 C 235.091 36.836,235.128 36.760,235.066 36.597 C 234.949 36.294,234.605 36.231,234.705 36.531 M62.104 38.792 C 62.261 39.446,62.333 39.468,62.333 38.861 C 62.333 38.571,62.257 38.333,62.163 38.333 C 62.063 38.333,62.038 38.520,62.104 38.792 M41.167 40.000 C 41.167 40.367,41.223 40.667,41.292 40.667 C 41.360 40.667,41.417 40.367,41.417 40.000 C 41.417 39.633,41.360 39.333,41.292 39.333 C 41.223 39.333,41.167 39.633,41.167 40.000 M61.833 40.417 C 61.833 40.646,61.761 40.833,61.672 40.833 C 61.583 40.833,61.555 40.949,61.609 41.090 C 61.686 41.290,61.759 41.248,61.937 40.904 C 62.207 40.384,62.234 40.000,62.000 40.000 C 61.908 40.000,61.833 40.188,61.833 40.417 M61.333 41.986 C 61.333 42.071,61.286 42.277,61.228 42.445 C 61.135 42.713,61.154 42.710,61.389 42.417 C 61.699 42.030,61.736 41.833,61.500 41.833 C 61.408 41.833,61.333 41.902,61.333 41.986 M144.927 43.483 C 144.876 43.565,144.302 43.686,143.651 43.752 C 142.999 43.817,142.268 43.974,142.025 44.101 C 141.782 44.228,141.377 44.332,141.125 44.332 C 140.873 44.333,140.667 44.405,140.667 44.492 C 140.667 44.580,140.385 44.703,140.042 44.766 C 139.698 44.829,139.269 44.982,139.088 45.107 C 138.907 45.231,138.626 45.333,138.463 45.333 C 138.300 45.333,138.167 45.407,138.167 45.497 C 138.167 45.587,137.961 45.712,137.710 45.775 C 137.459 45.838,137.153 45.989,137.031 46.111 C 136.909 46.233,136.710 46.333,136.589 46.333 C 136.468 46.333,136.326 46.446,136.273 46.583 C 136.220 46.721,136.062 46.833,135.922 46.833 C 135.782 46.833,135.667 46.907,135.667 46.997 C 135.667 47.087,135.485 47.206,135.262 47.262 C 135.040 47.318,134.817 47.469,134.767 47.598 C 134.718 47.728,134.595 47.833,134.494 47.833 C 134.301 47.833,130.667 51.384,130.667 51.572 C 130.667 51.632,130.497 51.864,130.290 52.088 C 130.083 52.311,129.726 52.852,129.498 53.289 C 129.270 53.726,129.023 54.128,128.948 54.183 C 128.703 54.364,127.667 56.514,127.667 56.843 C 127.667 57.021,127.598 57.167,127.515 57.167 C 127.431 57.167,127.312 57.466,127.250 57.832 C 127.188 58.199,127.074 58.538,126.995 58.586 C 126.917 58.635,126.801 59.029,126.739 59.462 C 126.676 59.895,126.540 60.355,126.437 60.484 C 126.174 60.813,126.175 69.132,126.438 69.298 C 126.542 69.363,126.680 69.810,126.745 70.291 C 126.811 70.773,126.926 71.204,127.001 71.251 C 127.076 71.297,127.188 71.635,127.250 72.001 C 127.312 72.367,127.423 72.667,127.496 72.667 C 127.570 72.667,127.679 72.929,127.739 73.250 C 127.799 73.571,127.914 73.833,127.994 73.833 C 128.075 73.833,128.190 74.058,128.250 74.333 C 128.310 74.608,128.423 74.833,128.500 74.833 C 128.577 74.833,128.690 75.058,128.750 75.333 C 128.810 75.608,128.927 75.833,129.010 75.833 C 129.093 75.833,129.207 76.021,129.265 76.250 C 129.322 76.479,129.436 76.667,129.518 76.667 C 129.600 76.667,129.667 76.775,129.667 76.908 C 129.667 77.041,129.762 77.210,129.879 77.283 C 129.996 77.357,130.215 77.611,130.366 77.849 C 130.517 78.087,130.871 78.512,131.153 78.794 C 131.436 79.077,131.667 79.372,131.667 79.451 C 131.667 79.530,132.052 79.930,132.522 80.339 C 132.992 80.748,133.573 81.261,133.814 81.479 C 134.054 81.696,134.438 81.994,134.667 82.141 C 134.896 82.288,135.143 82.504,135.217 82.621 C 135.290 82.738,135.459 82.833,135.592 82.833 C 135.725 82.833,135.833 82.907,135.833 82.997 C 135.833 83.087,136.021 83.207,136.250 83.265 C 136.479 83.322,136.667 83.436,136.667 83.518 C 136.667 83.600,136.745 83.667,136.840 83.667 C 137.037 83.667,138.055 84.352,138.139 84.542 C 138.169 84.610,138.303 84.667,138.436 84.667 C 138.569 84.667,138.718 84.772,138.767 84.902 C 138.817 85.031,139.040 85.182,139.262 85.238 C 139.485 85.294,139.667 85.407,139.667 85.490 C 139.667 85.573,139.892 85.690,140.167 85.750 C 140.442 85.810,140.667 85.923,140.667 86.000 C 140.667 86.077,140.892 86.190,141.167 86.250 C 141.442 86.310,141.667 86.423,141.667 86.500 C 141.667 86.577,141.892 86.690,142.167 86.750 C 142.442 86.810,142.667 86.919,142.667 86.991 C 142.667 87.064,142.977 87.164,143.357 87.215 C 143.737 87.266,144.093 87.378,144.149 87.464 C 144.205 87.550,144.605 87.673,145.038 87.736 C 145.471 87.800,145.864 87.915,145.911 87.992 C 145.959 88.068,146.749 88.184,147.667 88.250 C 148.585 88.316,149.377 88.436,149.428 88.518 C 149.546 88.710,152.285 88.713,152.403 88.522 C 152.453 88.442,153.244 88.324,154.161 88.258 C 155.079 88.193,155.869 88.076,155.918 87.998 C 155.966 87.920,156.417 87.805,156.919 87.742 C 157.422 87.680,157.833 87.563,157.833 87.483 C 157.833 87.403,158.133 87.289,158.500 87.231 C 158.867 87.172,159.167 87.062,159.167 86.986 C 159.167 86.910,159.429 86.799,159.750 86.739 C 160.071 86.679,160.333 86.571,160.333 86.500 C 160.333 86.428,160.527 86.321,160.764 86.261 C 161.951 85.963,161.917 86.174,161.917 79.250 L 161.917 73.019 161.508 72.638 C 161.081 72.241,159.906 72.122,159.689 72.454 C 159.195 73.213,158.833 73.008,158.833 71.970 C 158.833 70.549,157.330 69.417,156.717 70.375 C 156.643 70.490,155.983 70.870,155.250 71.220 C 154.517 71.570,153.792 71.922,153.640 72.004 C 153.487 72.085,152.979 72.202,152.511 72.264 C 152.042 72.326,151.619 72.442,151.570 72.522 C 151.450 72.716,147.333 72.709,147.333 72.515 C 147.333 72.431,147.022 72.310,146.641 72.246 C 145.893 72.119,144.911 71.245,144.728 70.542 C 144.674 70.335,144.572 70.167,144.501 70.167 C 144.430 70.167,144.321 69.829,144.259 69.417 C 144.197 69.004,144.076 68.667,143.990 68.667 C 143.903 68.667,143.833 67.927,143.833 67.000 C 143.833 66.083,143.902 65.333,143.985 65.333 C 144.069 65.333,144.191 65.015,144.256 64.625 C 144.321 64.235,144.421 63.879,144.479 63.833 C 144.631 63.712,145.333 62.695,145.333 62.596 C 145.333 62.456,146.501 61.333,146.646 61.333 C 146.721 61.333,146.917 61.183,147.083 61.000 C 147.249 60.817,147.486 60.667,147.609 60.667 C 147.732 60.667,147.833 60.598,147.833 60.513 C 147.833 60.429,148.058 60.310,148.333 60.250 C 148.608 60.190,148.833 60.077,148.833 59.999 C 148.833 59.921,149.247 59.806,149.752 59.743 C 150.258 59.679,150.712 59.561,150.762 59.481 C 150.885 59.282,154.096 59.292,154.461 59.492 C 154.620 59.579,155.181 59.697,155.708 59.754 C 156.235 59.811,156.667 59.927,156.667 60.012 C 156.667 60.097,156.796 60.167,156.954 60.167 C 157.276 60.167,159.719 61.343,159.806 61.540 C 159.928 61.819,161.184 61.663,161.549 61.324 C 161.946 60.954,162.225 50.165,161.873 48.805 C 161.709 48.172,160.737 47.418,159.875 47.254 C 159.577 47.198,159.333 47.080,159.333 46.992 C 159.333 46.905,159.229 46.833,159.101 46.833 C 158.974 46.833,158.824 46.653,158.769 46.432 C 158.667 46.027,157.748 45.474,156.792 45.242 C 156.540 45.181,156.333 45.064,156.333 44.982 C 156.333 44.900,156.202 44.833,156.042 44.832 C 155.881 44.832,155.544 44.724,155.293 44.593 C 155.041 44.461,154.497 44.303,154.084 44.241 C 153.671 44.179,153.333 44.069,153.333 43.995 C 153.333 43.922,152.771 43.809,152.083 43.745 C 151.396 43.680,150.833 43.561,150.833 43.480 C 150.833 43.287,145.047 43.289,144.927 43.483 M170.625 43.681 C 170.350 43.981,170.333 45.233,170.333 65.014 L 170.333 86.029 170.833 86.218 C 171.108 86.321,171.333 86.465,171.333 86.537 C 171.333 86.608,171.783 86.667,172.333 86.667 C 173.332 86.667,173.333 86.667,173.333 87.165 C 173.333 87.693,173.765 88.333,174.120 88.333 C 174.238 88.333,174.333 88.408,174.333 88.500 C 174.333 88.786,186.691 88.721,187.247 88.432 C 188.126 87.976,188.167 87.712,188.167 82.461 C 188.167 78.332,188.201 77.654,188.400 77.820 C 188.529 77.926,188.680 78.198,188.737 78.424 C 188.793 78.649,188.907 78.833,188.990 78.833 C 189.073 78.833,189.190 79.058,189.250 79.333 C 189.310 79.608,189.423 79.833,189.500 79.833 C 189.577 79.833,189.690 80.058,189.750 80.333 C 189.810 80.608,189.923 80.833,190.000 80.833 C 190.077 80.833,190.190 81.058,190.250 81.333 C 190.310 81.608,190.421 81.833,190.495 81.833 C 190.570 81.833,190.678 82.021,190.735 82.250 C 190.793 82.479,190.913 82.667,191.003 82.667 C 191.093 82.667,191.167 82.811,191.167 82.988 C 191.167 83.165,191.275 83.418,191.408 83.551 C 191.541 83.684,191.700 83.990,191.760 84.230 C 191.820 84.470,191.918 84.667,191.976 84.668 C 192.035 84.669,192.233 85.010,192.416 85.427 C 192.804 86.308,193.386 86.667,194.431 86.667 C 194.998 86.667,195.166 86.735,195.250 87.000 C 195.308 87.183,195.418 87.333,195.493 87.333 C 195.569 87.333,195.674 87.502,195.727 87.708 C 195.965 88.630,196.264 88.667,203.597 88.667 C 207.977 88.667,210.333 88.608,210.333 88.500 C 210.333 88.408,210.440 88.333,210.571 88.333 C 211.526 88.333,211.478 86.317,210.500 85.334 C 210.330 85.163,209.982 84.570,209.791 84.125 C 209.682 83.873,209.535 83.667,209.463 83.667 C 209.392 83.667,209.333 83.560,209.333 83.429 C 209.333 83.298,209.240 83.090,209.125 82.967 C 209.010 82.845,208.731 82.389,208.503 81.955 C 208.276 81.522,208.032 81.167,207.962 81.167 C 207.891 81.167,207.833 81.060,207.833 80.929 C 207.833 80.798,207.740 80.591,207.625 80.470 C 207.510 80.349,207.243 79.894,207.030 79.458 C 206.817 79.023,206.580 78.667,206.502 78.667 C 206.424 78.667,206.310 78.442,206.250 78.167 C 206.190 77.892,206.079 77.667,206.005 77.667 C 205.930 77.667,205.822 77.479,205.765 77.250 C 205.707 77.021,205.587 76.833,205.497 76.833 C 205.407 76.833,205.333 76.718,205.333 76.578 C 205.333 76.438,205.221 76.280,205.083 76.227 C 204.946 76.174,204.833 75.994,204.833 75.827 C 204.833 75.660,204.731 75.421,204.605 75.296 C 204.480 75.170,204.325 74.903,204.261 74.701 C 204.197 74.499,204.074 74.333,203.989 74.333 C 203.526 74.333,204.192 73.453,204.801 73.260 C 204.985 73.202,205.178 73.044,205.229 72.910 C 205.281 72.776,205.409 72.667,205.514 72.667 C 205.827 72.667,208.333 69.977,208.333 69.641 C 208.333 69.573,208.523 69.313,208.754 69.063 C 208.985 68.814,209.219 68.435,209.272 68.221 C 209.326 68.008,209.433 67.833,209.511 67.833 C 209.588 67.833,209.701 67.571,209.761 67.250 C 209.821 66.929,209.936 66.667,210.017 66.667 C 210.097 66.667,210.211 66.367,210.269 66.000 C 210.328 65.633,210.435 65.333,210.508 65.333 C 210.581 65.333,210.687 64.827,210.745 64.208 C 210.802 63.590,210.921 62.953,211.008 62.794 C 211.205 62.435,211.220 58.552,211.025 58.432 C 210.946 58.384,210.836 57.841,210.778 57.226 C 210.721 56.610,210.597 56.030,210.503 55.937 C 210.410 55.843,210.331 55.613,210.328 55.425 C 210.325 55.237,210.177 54.783,210.000 54.417 C 209.823 54.050,209.675 53.656,209.672 53.542 C 209.669 53.427,209.608 53.333,209.537 53.333 C 209.465 53.333,209.318 53.127,209.209 52.875 C 208.944 52.258,208.653 51.822,208.232 51.406 C 208.039 51.216,207.852 50.974,207.816 50.868 C 207.732 50.623,205.996 48.833,205.842 48.833 C 205.779 48.833,205.472 48.606,205.160 48.327 C 204.848 48.049,204.422 47.778,204.213 47.726 C 204.004 47.673,203.833 47.564,203.833 47.482 C 203.833 47.400,203.755 47.333,203.660 47.333 C 203.456 47.333,202.577 46.725,202.091 46.248 C 201.904 46.063,201.395 45.740,200.962 45.530 C 200.529 45.319,200.131 45.076,200.077 44.990 C 200.024 44.904,199.844 44.833,199.677 44.833 C 199.511 44.833,199.288 44.729,199.182 44.601 C 199.076 44.474,198.656 44.320,198.249 44.258 C 197.841 44.197,197.469 44.084,197.421 44.007 C 197.373 43.929,196.884 43.814,196.333 43.750 C 195.783 43.686,195.291 43.566,195.240 43.484 C 195.025 43.136,170.946 43.329,170.625 43.681 M220.583 43.596 C 220.254 43.845,220.250 44.070,220.204 64.632 C 220.154 86.907,220.134 86.110,220.753 86.266 C 220.980 86.323,221.167 86.436,221.167 86.518 C 221.167 86.600,221.608 86.667,222.147 86.667 C 223.194 86.667,223.325 86.791,223.331 87.788 C 223.333 88.045,223.462 88.193,223.750 88.265 C 223.979 88.322,224.167 88.436,224.167 88.518 C 224.167 88.602,226.902 88.667,230.500 88.667 C 234.098 88.667,236.833 88.602,236.833 88.518 C 236.833 88.436,237.005 88.326,237.216 88.274 C 238.202 88.026,238.167 88.825,238.167 66.870 C 238.167 55.685,238.103 46.813,238.022 46.763 C 237.942 46.714,237.831 46.447,237.776 46.170 C 237.716 45.874,237.570 45.667,237.421 45.667 C 237.281 45.667,237.167 45.592,237.167 45.500 C 237.167 45.405,236.674 45.333,236.022 45.333 L 234.877 45.333 234.791 44.574 C 234.647 43.297,234.923 43.344,227.500 43.344 C 221.885 43.344,220.868 43.381,220.583 43.596 M246.696 43.719 C 246.337 44.101,246.333 44.169,246.333 50.302 C 246.333 57.608,246.223 57.195,248.205 57.307 C 249.323 57.370,249.333 57.375,249.333 57.852 C 249.333 58.117,249.400 58.333,249.482 58.333 C 249.564 58.333,249.675 58.512,249.730 58.730 C 249.868 59.278,250.180 59.328,253.417 59.331 L 256.250 59.333 256.250 72.470 C 256.250 85.155,256.261 85.618,256.567 85.924 C 257.093 86.450,257.663 86.667,258.519 86.667 C 259.206 86.667,259.333 86.716,259.333 86.981 C 259.333 87.493,259.770 88.181,260.253 88.432 C 260.876 88.755,272.637 88.779,273.211 88.458 C 274.252 87.876,274.167 89.212,274.167 73.558 L 274.167 59.333 278.738 59.333 C 282.579 59.333,283.349 59.293,283.560 59.083 C 283.697 58.946,283.890 58.833,283.988 58.833 C 284.112 58.833,284.167 56.867,284.167 52.413 L 284.167 45.993 283.750 45.803 C 283.521 45.699,283.333 45.550,283.333 45.473 C 283.333 45.396,282.846 45.333,282.250 45.333 L 281.167 45.333 281.167 44.750 C 281.167 44.429,281.092 44.167,281.000 44.167 C 280.908 44.167,280.833 44.081,280.833 43.977 C 280.833 43.345,280.816 43.344,263.654 43.339 L 247.058 43.333 246.696 43.719 M292.542 43.612 L 292.167 43.874 292.167 64.842 C 292.167 87.308,292.132 86.333,292.929 86.333 C 293.060 86.333,293.167 86.408,293.167 86.500 C 293.167 86.593,293.611 86.667,294.167 86.667 C 295.092 86.667,295.167 86.695,295.169 87.042 C 295.173 87.760,295.374 88.171,295.770 88.270 C 295.988 88.325,296.167 88.436,296.167 88.518 C 296.167 88.602,298.902 88.667,302.500 88.667 C 305.983 88.667,308.833 88.608,308.833 88.537 C 308.833 88.465,309.058 88.321,309.333 88.218 L 309.833 88.029 309.833 66.916 C 309.833 45.942,309.831 45.802,309.500 45.715 C 309.317 45.667,309.167 45.562,309.167 45.481 C 309.167 45.400,308.642 45.333,308.000 45.333 L 306.833 45.333 306.833 44.772 C 306.833 44.457,306.682 44.019,306.488 43.772 L 306.142 43.333 299.530 43.342 C 293.801 43.350,292.867 43.386,292.542 43.612 M337.262 43.480 C 337.212 43.561,336.608 43.680,335.919 43.744 C 335.230 43.809,334.667 43.922,334.667 43.995 C 334.667 44.069,334.329 44.179,333.916 44.241 C 333.503 44.303,332.959 44.461,332.707 44.593 C 332.456 44.724,332.162 44.832,332.055 44.832 C 331.881 44.833,331.197 45.140,330.500 45.529 C 330.362 45.606,330.137 45.711,330.000 45.763 C 329.862 45.815,329.637 45.927,329.500 46.013 C 329.362 46.099,329.137 46.220,329.000 46.283 C 328.862 46.346,328.651 46.496,328.530 46.616 C 328.409 46.735,328.210 46.833,328.089 46.833 C 327.968 46.833,327.826 46.946,327.773 47.083 C 327.720 47.221,327.562 47.333,327.422 47.333 C 327.282 47.333,327.166 47.390,327.166 47.458 C 327.165 47.527,326.888 47.771,326.551 48.000 C 325.576 48.662,323.713 50.595,322.455 52.248 C 322.385 52.341,322.179 52.597,321.997 52.817 C 321.815 53.037,321.667 53.312,321.667 53.428 C 321.667 53.544,321.610 53.664,321.542 53.694 C 321.354 53.778,320.167 56.128,320.167 56.416 C 320.167 56.554,320.098 56.667,320.013 56.667 C 319.929 56.667,319.809 56.897,319.748 57.178 C 319.686 57.459,319.530 57.890,319.402 58.136 C 319.274 58.382,319.168 58.821,319.168 59.111 C 319.167 59.401,319.081 59.667,318.977 59.702 C 318.868 59.739,318.753 60.308,318.705 61.053 C 318.660 61.761,318.557 62.381,318.478 62.430 C 318.289 62.547,318.289 67.333,318.478 67.333 C 318.558 67.333,318.659 67.893,318.703 68.577 C 318.747 69.261,318.859 69.918,318.952 70.036 C 319.045 70.154,319.164 70.586,319.217 70.996 C 319.269 71.407,319.392 71.769,319.489 71.802 C 319.587 71.834,319.669 72.024,319.672 72.222 C 319.675 72.421,319.823 72.883,320.000 73.250 C 320.177 73.617,320.325 74.010,320.328 74.125 C 320.331 74.240,320.402 74.333,320.487 74.333 C 320.571 74.333,320.690 74.558,320.750 74.833 C 320.810 75.108,320.921 75.333,320.995 75.333 C 321.070 75.333,321.178 75.521,321.235 75.750 C 321.293 75.979,321.413 76.167,321.503 76.167 C 321.593 76.167,321.667 76.245,321.667 76.340 C 321.667 76.593,322.216 77.359,323.417 78.778 C 324.546 80.112,326.051 81.511,327.250 82.340 C 327.708 82.657,328.108 82.973,328.139 83.042 C 328.169 83.110,328.261 83.167,328.342 83.167 C 328.473 83.167,330.955 84.774,331.167 84.996 C 331.326 85.163,331.919 85.513,332.375 85.709 C 332.627 85.818,332.833 85.959,332.833 86.023 C 332.833 86.088,333.058 86.190,333.333 86.250 C 333.608 86.310,333.833 86.429,333.833 86.513 C 333.833 86.598,333.927 86.667,334.042 86.668 C 334.156 86.668,334.444 86.770,334.682 86.894 C 334.920 87.018,335.389 87.171,335.724 87.234 C 336.059 87.297,336.333 87.411,336.333 87.488 C 336.333 87.565,336.746 87.680,337.250 87.743 C 337.754 87.806,338.167 87.919,338.167 87.994 C 338.167 88.069,338.917 88.184,339.835 88.250 C 340.752 88.316,341.544 88.436,341.595 88.518 C 341.714 88.711,344.619 88.713,344.738 88.520 C 344.787 88.439,345.617 88.320,346.581 88.254 C 347.545 88.188,348.333 88.072,348.333 87.996 C 348.333 87.920,348.746 87.806,349.250 87.743 C 349.754 87.680,350.167 87.565,350.167 87.488 C 350.167 87.411,350.441 87.297,350.776 87.234 C 351.111 87.171,351.580 87.018,351.818 86.894 C 352.056 86.770,352.344 86.668,352.458 86.668 C 352.573 86.667,352.667 86.600,352.667 86.518 C 352.667 86.436,352.869 86.319,353.117 86.257 C 353.364 86.194,353.739 85.957,353.950 85.730 L 354.333 85.316 354.331 79.366 C 354.330 76.094,354.285 73.253,354.231 73.053 C 354.025 72.284,352.342 71.970,351.817 72.603 C 351.398 73.108,351.167 72.862,351.167 71.909 C 351.167 70.676,350.613 70.085,349.587 70.223 C 349.222 70.272,348.897 70.392,348.865 70.489 C 348.832 70.587,348.697 70.667,348.564 70.667 C 348.431 70.667,348.281 70.775,348.231 70.906 C 348.180 71.038,347.920 71.194,347.653 71.253 C 347.385 71.312,347.167 71.419,347.167 71.492 C 347.167 71.565,346.867 71.672,346.500 71.731 C 346.133 71.789,345.833 71.904,345.833 71.986 C 345.833 72.067,345.383 72.186,344.833 72.250 C 344.283 72.314,343.833 72.434,343.833 72.516 C 343.833 72.709,339.883 72.715,339.764 72.522 C 339.714 72.442,339.372 72.329,339.003 72.270 C 338.296 72.157,337.667 71.738,337.667 71.380 C 337.667 71.262,337.593 71.167,337.503 71.167 C 337.413 71.167,337.293 70.979,337.235 70.750 C 337.178 70.521,337.070 70.333,336.995 70.333 C 336.921 70.333,336.808 70.090,336.744 69.792 C 336.680 69.494,336.543 69.145,336.439 69.016 C 336.186 68.703,336.186 65.297,336.439 64.984 C 336.543 64.855,336.680 64.506,336.744 64.208 C 336.808 63.910,336.929 63.667,337.013 63.667 C 337.098 63.667,337.167 63.566,337.167 63.442 C 337.167 63.319,337.321 63.037,337.510 62.817 C 338.542 61.614,338.822 61.333,338.991 61.333 C 339.093 61.333,339.218 61.228,339.267 61.098 C 339.317 60.969,339.540 60.818,339.762 60.762 C 339.985 60.706,340.167 60.587,340.167 60.497 C 340.167 60.407,340.260 60.333,340.375 60.332 C 340.490 60.332,340.783 60.227,341.028 60.099 C 341.273 59.972,341.798 59.814,342.195 59.748 C 342.592 59.683,343.005 59.557,343.114 59.470 C 343.511 59.150,348.418 59.588,348.901 59.986 C 349.001 60.069,349.365 60.189,349.708 60.254 C 350.052 60.318,350.333 60.431,350.333 60.505 C 350.333 60.579,350.558 60.690,350.833 60.750 C 351.108 60.810,351.333 60.927,351.333 61.010 C 351.333 61.093,351.521 61.207,351.750 61.265 C 351.979 61.322,352.167 61.436,352.167 61.518 C 352.167 61.885,353.547 61.665,353.945 61.235 L 354.345 60.804 354.297 54.598 C 354.246 47.822,354.271 47.991,353.270 47.740 C 353.030 47.680,352.833 47.572,352.833 47.500 C 352.833 47.429,352.571 47.321,352.250 47.261 C 351.929 47.201,351.667 47.080,351.667 46.992 C 351.667 46.905,351.572 46.833,351.456 46.833 C 351.340 46.833,351.172 46.666,351.081 46.462 C 350.991 46.258,350.692 45.977,350.417 45.837 C 350.142 45.698,349.892 45.527,349.861 45.458 C 349.831 45.390,349.678 45.333,349.523 45.333 C 349.368 45.333,349.089 45.227,348.904 45.097 C 348.718 44.967,348.289 44.809,347.950 44.745 C 347.611 44.682,347.333 44.563,347.333 44.481 C 347.333 44.400,347.127 44.333,346.875 44.332 C 346.623 44.332,346.218 44.228,345.975 44.101 C 345.732 43.974,345.001 43.817,344.349 43.752 C 343.698 43.686,343.124 43.565,343.073 43.483 C 342.953 43.289,337.382 43.287,337.262 43.480 M375.927 43.483 C 375.876 43.565,375.302 43.686,374.651 43.752 C 373.999 43.817,373.268 43.974,373.025 44.101 C 372.782 44.228,372.377 44.332,372.125 44.332 C 371.873 44.333,371.667 44.408,371.667 44.500 C 371.667 44.592,371.580 44.667,371.474 44.667 C 371.287 44.667,368.835 45.831,368.667 46.000 C 368.482 46.185,367.507 46.833,367.413 46.833 C 367.274 46.833,365.167 48.932,365.167 49.071 C 365.167 49.132,364.995 49.348,364.786 49.550 C 364.316 50.003,363.167 52.297,363.167 52.782 C 363.167 52.978,363.073 53.170,362.958 53.208 C 362.677 53.303,362.659 59.337,362.939 59.683 C 363.044 59.811,363.182 60.235,363.246 60.625 C 363.310 61.015,363.425 61.333,363.501 61.333 C 363.578 61.333,363.690 61.558,363.750 61.833 C 363.810 62.108,363.921 62.333,363.995 62.333 C 364.070 62.333,364.174 62.508,364.228 62.721 C 364.281 62.935,364.515 63.314,364.746 63.563 C 364.977 63.813,365.167 64.074,365.167 64.145 C 365.167 64.321,366.694 65.833,366.872 65.833 C 366.951 65.833,367.201 66.033,367.428 66.278 C 367.865 66.749,368.004 66.841,369.276 67.500 C 369.719 67.729,370.232 68.067,370.416 68.250 C 370.936 68.769,371.795 69.333,372.063 69.333 C 372.196 69.333,372.331 69.393,372.361 69.466 C 372.438 69.648,373.791 70.333,374.075 70.333 C 374.202 70.333,374.331 70.410,374.362 70.504 C 374.394 70.598,374.719 70.722,375.085 70.780 C 375.451 70.838,375.797 70.956,375.854 71.044 C 375.912 71.131,376.324 71.243,376.771 71.292 C 377.218 71.341,377.628 71.450,377.682 71.533 C 377.737 71.617,378.224 71.730,378.766 71.784 C 379.307 71.839,379.793 71.948,379.845 72.028 C 379.897 72.107,380.553 72.220,381.303 72.278 C 382.286 72.353,382.667 72.446,382.667 72.608 C 382.667 72.732,382.554 72.833,382.417 72.833 C 382.279 72.833,382.167 72.908,382.167 73.000 C 382.167 73.215,376.723 73.226,376.590 73.011 C 376.537 72.926,375.894 72.803,375.160 72.739 C 374.426 72.675,373.788 72.561,373.741 72.486 C 373.695 72.410,373.209 72.298,372.662 72.236 C 372.114 72.174,371.667 72.068,371.667 72.000 C 371.667 71.932,371.377 71.830,371.022 71.773 C 370.668 71.716,370.161 71.557,369.897 71.419 C 369.633 71.281,369.322 71.168,369.206 71.168 C 369.090 71.167,368.865 71.098,368.706 71.013 C 367.751 70.508,366.956 70.167,366.733 70.167 C 366.592 70.167,366.364 70.054,366.226 69.917 C 366.089 69.779,365.840 69.667,365.673 69.667 C 365.506 69.667,365.326 69.554,365.273 69.417 C 365.220 69.279,364.987 69.167,364.755 69.167 C 364.523 69.167,364.333 69.092,364.333 69.000 C 364.333 68.681,363.546 68.836,363.108 69.242 L 362.667 69.651 362.667 76.122 C 362.667 83.243,362.621 82.921,363.691 83.256 C 363.907 83.323,364.121 83.429,364.167 83.491 C 364.212 83.553,364.512 83.677,364.831 83.766 C 365.151 83.855,365.489 84.081,365.582 84.269 C 365.841 84.788,366.247 85.139,366.730 85.260 C 366.970 85.320,367.167 85.436,367.167 85.518 C 367.167 85.600,367.298 85.667,367.458 85.668 C 367.619 85.668,367.951 85.774,368.197 85.902 C 368.443 86.030,368.893 86.188,369.197 86.254 C 369.501 86.319,369.825 86.431,369.917 86.504 C 370.008 86.576,370.440 86.689,370.875 86.753 C 371.310 86.818,371.667 86.927,371.667 86.995 C 371.667 87.063,372.128 87.167,372.691 87.226 C 373.255 87.285,373.799 87.398,373.900 87.477 C 374.001 87.556,374.640 87.671,375.321 87.731 C 376.002 87.792,376.639 87.907,376.738 87.988 C 376.836 88.069,378.100 88.190,379.546 88.257 C 380.992 88.324,382.215 88.443,382.264 88.523 C 382.380 88.711,384.953 88.710,385.070 88.522 C 385.119 88.442,385.986 88.323,386.996 88.258 C 388.007 88.192,388.833 88.075,388.833 87.998 C 388.833 87.921,389.246 87.806,389.750 87.743 C 390.254 87.680,390.667 87.562,390.667 87.481 C 390.667 87.400,390.783 87.333,390.926 87.333 C 391.197 87.333,392.570 86.775,393.000 86.489 C 393.137 86.398,393.381 86.280,393.542 86.226 C 393.702 86.172,393.833 86.070,393.833 85.999 C 393.833 85.928,394.021 85.822,394.250 85.765 C 394.479 85.707,394.667 85.587,394.667 85.497 C 394.667 85.407,394.752 85.333,394.857 85.333 C 395.037 85.333,395.250 85.152,396.667 83.792 C 397.510 82.982,398.167 82.196,398.167 81.996 C 398.167 81.901,398.272 81.782,398.402 81.733 C 398.531 81.683,398.682 81.460,398.738 81.238 C 398.794 81.015,398.913 80.833,399.003 80.833 C 399.093 80.833,399.167 80.689,399.167 80.512 C 399.167 80.335,399.263 80.091,399.381 79.970 C 399.897 79.440,400.000 78.379,399.993 73.647 C 399.985 68.447,399.739 66.825,398.879 66.283 C 398.762 66.210,398.667 66.076,398.667 65.985 C 398.667 65.760,398.399 65.433,397.417 64.456 C 396.288 63.333,396.087 63.167,395.861 63.167 C 395.754 63.167,395.667 63.093,395.667 63.003 C 395.667 62.913,395.485 62.794,395.262 62.738 C 395.040 62.682,394.818 62.535,394.771 62.410 C 394.679 62.171,395.066 62.244,395.447 62.537 C 395.555 62.620,396.064 62.732,396.579 62.785 C 398.238 62.956,398.167 63.269,398.167 55.840 C 398.167 48.725,398.212 48.982,396.926 48.741 C 396.600 48.680,396.333 48.571,396.333 48.500 C 396.333 48.429,396.071 48.321,395.750 48.261 C 395.358 48.187,395.165 48.058,395.161 47.867 C 395.154 47.506,394.599 46.834,394.307 46.832 C 394.184 46.832,393.882 46.726,393.636 46.598 C 393.390 46.470,392.959 46.314,392.678 46.252 C 392.397 46.191,392.167 46.081,392.167 46.008 C 392.167 45.935,391.867 45.828,391.500 45.769 C 391.133 45.711,390.833 45.589,390.833 45.498 C 390.833 45.407,390.702 45.333,390.542 45.332 C 390.381 45.332,390.035 45.219,389.773 45.082 C 389.510 44.945,389.173 44.833,389.023 44.832 C 388.873 44.832,388.554 44.729,388.315 44.604 C 388.076 44.480,387.459 44.325,386.943 44.260 C 386.427 44.196,385.968 44.083,385.922 44.008 C 385.876 43.934,385.200 43.820,384.420 43.755 C 383.640 43.690,382.959 43.569,382.907 43.485 C 382.786 43.288,376.049 43.286,375.927 43.483 M150.833 44.904 C 153.068 45.230,154.761 45.729,156.615 46.606 L 157.500 47.024 157.500 52.595 C 157.500 55.973,157.438 58.167,157.343 58.167 C 157.256 58.167,156.928 58.015,156.613 57.829 C 149.646 53.718,140.347 56.928,139.524 63.728 C 138.527 71.964,147.365 76.595,156.000 72.363 C 156.688 72.026,157.306 71.725,157.375 71.694 C 157.444 71.664,157.500 74.156,157.500 77.233 L 157.500 82.828 156.708 83.227 C 148.163 87.531,136.526 84.477,131.065 76.495 C 120.952 61.715,133.092 42.315,150.833 44.904 M195.083 44.912 C 202.368 46.218,206.620 51.371,206.569 58.833 C 206.533 64.113,203.714 68.908,199.458 70.931 C 198.686 71.299,198.682 71.235,199.559 72.702 C 199.958 73.370,201.315 75.679,202.575 77.833 C 203.836 79.987,205.272 82.438,205.767 83.279 C 206.262 84.120,206.667 84.889,206.667 84.989 C 206.667 85.118,204.785 85.158,200.225 85.127 L 193.783 85.083 193.472 84.500 C 193.301 84.179,191.820 81.367,190.180 78.250 L 187.199 72.583 185.435 72.536 L 183.671 72.489 183.627 78.786 L 183.583 85.083 177.583 85.083 L 171.583 85.083 171.540 65.083 C 171.517 54.083,171.533 44.990,171.577 44.875 C 171.701 44.549,193.248 44.583,195.083 44.912 M233.417 64.917 L 233.417 85.083 227.458 85.127 L 221.500 85.171 221.500 64.917 L 221.500 44.662 227.458 44.706 L 233.417 44.750 233.417 64.917 M279.583 50.333 L 279.583 55.917 274.626 55.961 L 269.668 56.005 269.626 70.544 L 269.583 85.083 263.626 85.127 L 257.668 85.171 257.626 70.627 L 257.583 56.083 252.625 56.039 L 247.667 55.995 247.667 50.442 C 247.667 47.388,247.717 44.839,247.779 44.777 C 247.840 44.715,255.021 44.684,263.737 44.707 L 279.583 44.750 279.583 50.333 M305.417 64.917 L 305.417 85.083 299.417 85.083 L 293.417 85.083 293.374 65.083 C 293.350 54.083,293.367 44.989,293.411 44.873 C 293.474 44.708,294.773 44.672,299.454 44.706 L 305.417 44.750 305.417 64.917 M343.000 44.901 C 345.056 45.190,346.394 45.558,348.154 46.318 L 349.583 46.935 349.627 52.551 C 349.651 55.640,349.630 58.167,349.581 58.167 C 349.531 58.167,349.049 57.944,348.509 57.671 C 340.544 53.650,331.675 57.440,331.668 64.867 C 331.660 72.647,340.792 76.575,348.622 72.159 C 349.102 71.888,349.534 71.667,349.581 71.667 C 349.628 71.667,349.667 74.178,349.667 77.247 L 349.667 82.828 348.828 83.253 C 339.656 87.901,327.252 83.945,322.168 74.750 C 314.026 60.025,326.227 42.544,343.000 44.901 M382.500 44.840 C 385.988 45.268,390.544 46.588,393.208 47.942 L 393.667 48.175 393.667 53.744 C 393.667 59.623,393.659 59.676,392.880 59.276 C 392.172 58.913,387.636 57.375,386.164 56.999 C 380.497 55.552,375.396 55.694,375.901 57.284 C 376.071 57.821,376.693 57.977,379.750 58.249 C 391.458 59.293,397.027 64.470,396.005 73.363 C 395.334 79.209,391.423 83.201,384.826 84.777 C 383.285 85.145,377.035 85.200,374.917 84.863 C 370.189 84.113,367.031 83.325,364.625 82.297 L 363.833 81.959 363.833 76.146 C 363.833 72.949,363.866 70.333,363.905 70.333 C 363.945 70.333,364.639 70.666,365.447 71.074 C 369.789 73.261,374.824 74.469,379.833 74.525 C 382.826 74.559,384.000 73.891,384.000 72.155 C 384.000 70.280,383.065 69.770,378.050 68.909 C 369.559 67.451,365.265 64.419,364.067 59.036 C 362.066 50.039,370.698 43.391,382.500 44.840 M57.258 48.337 C 56.631 48.981,56.148 49.534,56.184 49.567 C 56.220 49.600,56.799 49.073,57.471 48.397 C 58.142 47.720,58.626 47.167,58.545 47.167 C 58.464 47.167,57.885 47.693,57.258 48.337 M53.199 51.344 C 52.962 51.723,53.088 51.769,53.430 51.427 C 53.562 51.296,53.609 51.150,53.535 51.105 C 53.461 51.059,53.309 51.167,53.199 51.344 M51.125 52.282 C 50.965 52.323,50.833 52.427,50.833 52.512 C 50.833 52.717,50.880 52.710,51.439 52.418 C 51.895 52.180,51.751 52.118,51.125 52.282 M50.226 52.917 C 50.364 53.054,50.507 53.167,50.544 53.167 C 50.581 53.167,50.611 53.054,50.611 52.917 C 50.611 52.779,50.468 52.667,50.294 52.667 C 50.011 52.667,50.004 52.694,50.226 52.917 M53.934 54.903 C 53.990 55.048,54.109 55.167,54.198 55.167 C 54.417 55.167,54.280 54.788,54.031 54.705 C 53.909 54.664,53.872 54.740,53.934 54.903 M54.872 55.531 C 54.908 55.640,55.027 55.759,55.136 55.795 C 55.257 55.836,55.295 55.760,55.232 55.597 C 55.116 55.294,54.772 55.231,54.872 55.531 M183.705 59.458 L 183.750 63.583 187.833 63.583 C 191.783 63.583,191.946 63.570,192.799 63.185 C 195.654 61.895,196.144 58.085,193.695 56.217 C 192.640 55.412,192.122 55.335,187.705 55.334 L 183.661 55.333 183.705 59.458 M56.179 56.625 C 56.402 56.877,56.602 57.115,56.625 57.153 C 56.648 57.191,56.714 57.175,56.773 57.116 C 56.894 56.995,56.162 56.174,55.929 56.170 C 55.845 56.168,55.957 56.373,56.179 56.625 M57.667 57.982 C 57.667 58.196,58.337 58.833,58.563 58.833 C 58.655 58.833,58.617 58.740,58.479 58.625 C 58.340 58.510,58.101 58.280,57.947 58.113 C 57.793 57.946,57.667 57.887,57.667 57.982 M35.625 58.784 C 35.831 58.824,36.169 58.824,36.375 58.784 C 36.581 58.745,36.412 58.712,36.000 58.712 C 35.587 58.712,35.419 58.745,35.625 58.784 M193.868 59.042 C 194.028 60.068,193.294 61.586,192.548 61.774 C 192.338 61.826,192.167 61.936,192.167 62.018 C 192.167 62.100,191.267 62.167,190.167 62.167 L 188.167 62.167 188.167 60.417 L 188.167 58.667 190.988 58.667 C 193.786 58.667,193.811 58.670,193.868 59.042 M36.917 59.000 C 36.973 59.092,37.128 59.167,37.260 59.167 C 37.392 59.167,37.500 59.092,37.500 59.000 C 37.500 58.908,37.346 58.833,37.157 58.833 C 36.968 58.833,36.860 58.908,36.917 59.000 M58.705 59.364 C 58.788 59.614,59.167 59.751,59.167 59.532 C 59.167 59.442,59.048 59.323,58.903 59.268 C 58.740 59.205,58.664 59.243,58.705 59.364 M38.917 60.000 C 39.083 60.183,39.247 60.333,39.282 60.333 C 39.317 60.333,39.265 60.183,39.167 60.000 C 39.069 59.817,38.904 59.667,38.802 59.667 C 38.699 59.667,38.751 59.817,38.917 60.000 M39.901 60.976 C 40.254 61.373,40.333 61.409,40.333 61.173 C 40.333 61.084,40.165 60.923,39.958 60.815 C 39.585 60.619,39.585 60.620,39.901 60.976 M60.218 61.555 C 60.281 61.723,60.333 61.929,60.333 62.014 C 60.333 62.098,60.408 62.167,60.500 62.167 C 60.757 62.167,60.698 61.840,60.384 61.530 C 60.120 61.268,60.109 61.269,60.218 61.555 M60.718 62.555 C 60.781 62.723,60.833 62.929,60.833 63.014 C 60.833 63.098,60.908 63.167,61.000 63.167 C 61.257 63.167,61.198 62.840,60.884 62.530 C 60.620 62.268,60.609 62.269,60.718 62.555 M61.240 63.821 C 61.346 64.446,61.443 64.612,61.606 64.449 C 61.665 64.391,61.585 64.097,61.428 63.796 L 61.143 63.250 61.240 63.821 M41.167 64.500 C 41.167 64.867,41.196 65.167,41.232 65.167 C 41.269 65.167,41.327 64.867,41.362 64.500 C 41.397 64.133,41.367 63.833,41.296 63.833 C 41.225 63.833,41.167 64.133,41.167 64.500 M61.765 65.417 C 61.872 66.143,61.941 66.281,62.111 66.111 C 62.173 66.050,62.141 65.831,62.040 65.625 C 61.940 65.419,61.815 65.137,61.762 65.000 C 61.709 64.862,61.710 65.050,61.765 65.417 M62.130 67.341 C 62.089 67.620,62.118 67.887,62.194 67.934 C 62.271 67.981,62.333 67.753,62.333 67.427 C 62.333 66.700,62.230 66.656,62.130 67.341 M93.208 68.292 C 96.577 68.317,102.090 68.317,105.458 68.292 C 108.827 68.266,106.071 68.246,99.333 68.246 C 92.596 68.246,89.840 68.266,93.208 68.292 M62.333 70.167 C 62.333 71.360,62.393 71.983,62.500 71.917 C 62.593 71.859,62.667 71.085,62.667 70.167 C 62.667 69.248,62.593 68.474,62.500 68.417 C 62.393 68.350,62.333 68.974,62.333 70.167 M62.012 72.458 C 62.058 72.947,62.311 73.219,62.322 72.792 C 62.328 72.540,62.258 72.333,62.167 72.333 C 62.075 72.333,62.005 72.390,62.012 72.458 M61.833 74.343 C 61.833 74.532,61.908 74.640,62.000 74.583 C 62.092 74.527,62.167 74.372,62.167 74.240 C 62.167 74.108,62.092 74.000,62.000 74.000 C 61.908 74.000,61.833 74.154,61.833 74.343 M61.333 75.986 C 61.333 76.071,61.286 76.277,61.228 76.445 C 61.135 76.713,61.154 76.710,61.389 76.417 C 61.699 76.030,61.736 75.833,61.500 75.833 C 61.408 75.833,61.333 75.902,61.333 75.986 M60.225 78.232 C 60.106 78.367,60.090 78.540,60.181 78.684 C 60.299 78.870,60.329 78.859,60.331 78.625 C 60.332 78.465,60.408 78.333,60.500 78.333 C 60.592 78.333,60.667 78.258,60.667 78.167 C 60.667 77.937,60.455 77.968,60.225 78.232 M58.717 80.890 C 58.643 81.012,58.442 81.190,58.270 81.283 C 58.098 81.377,58.023 81.493,58.104 81.541 C 58.184 81.589,58.461 81.412,58.719 81.147 C 58.977 80.883,59.112 80.667,59.019 80.667 C 58.926 80.667,58.790 80.767,58.717 80.890 M57.115 82.701 C 56.674 83.160,56.339 83.561,56.371 83.593 C 56.435 83.657,57.401 82.777,57.901 82.200 C 58.516 81.490,57.907 81.878,57.115 82.701 M55.117 84.434 C 54.953 84.654,54.880 84.833,54.955 84.833 C 55.159 84.833,55.673 84.190,55.535 84.106 C 55.470 84.067,55.282 84.214,55.117 84.434 M53.500 85.481 C 53.500 85.562,53.350 85.667,53.167 85.715 C 52.983 85.763,52.833 85.881,52.833 85.977 C 52.833 86.074,53.054 86.025,53.332 85.867 C 53.828 85.585,53.986 85.333,53.667 85.333 C 53.575 85.333,53.500 85.400,53.500 85.481 M50.792 86.782 C 50.459 86.868,50.393 87.169,50.708 87.161 C 50.823 87.158,51.062 87.046,51.240 86.911 C 51.569 86.662,51.417 86.618,50.792 86.782 M49.000 87.500 C 49.000 87.592,49.108 87.667,49.240 87.667 C 49.372 87.667,49.527 87.592,49.583 87.500 C 49.640 87.408,49.532 87.333,49.343 87.333 C 49.154 87.333,49.000 87.408,49.000 87.500 M47.833 87.690 C 47.833 87.769,47.608 87.833,47.333 87.833 C 47.058 87.833,46.833 87.908,46.833 88.000 C 46.833 88.209,47.545 88.220,47.758 88.014 C 47.845 87.930,48.104 87.834,48.333 87.801 L 48.750 87.740 48.292 87.643 C 48.040 87.590,47.833 87.611,47.833 87.690 M13.388 88.292 C 19.330 88.316,29.005 88.316,34.888 88.292 C 40.770 88.267,35.908 88.248,24.083 88.248 C 12.258 88.248,7.445 88.267,13.388 88.292 M77.305 88.292 C 83.660 88.316,94.010 88.316,100.305 88.292 C 106.600 88.267,101.400 88.248,88.750 88.248 C 76.100 88.248,70.950 88.267,77.305 88.292 " stroke="none" fill="#0b0b0b" fill-rule="evenodd"></path><path id="path1" d="M144.583 44.999 C 128.131 47.402,121.686 67.969,133.772 79.503 C 139.720 85.179,150.039 86.812,156.709 83.134 L 157.417 82.744 157.461 77.288 C 157.490 73.632,157.448 71.833,157.333 71.833 C 157.239 71.833,156.769 72.054,156.289 72.324 C 149.180 76.322,140.480 73.164,139.467 66.217 C 138.303 58.231,147.290 53.415,155.918 57.402 C 156.631 57.731,157.279 58.000,157.359 58.000 C 157.440 58.000,157.485 55.573,157.461 52.543 L 157.417 47.086 156.833 46.801 C 153.473 45.158,148.502 44.427,144.583 44.999 M171.708 64.951 L 171.750 85.083 177.250 85.130 C 180.275 85.155,182.918 85.136,183.123 85.086 L 183.496 84.995 183.540 78.706 L 183.583 72.417 185.388 72.417 L 187.192 72.417 187.979 73.917 C 188.412 74.742,189.358 76.542,190.081 77.917 C 190.805 79.292,191.866 81.317,192.438 82.417 C 193.011 83.517,193.628 84.585,193.810 84.792 L 194.141 85.167 200.196 85.164 C 207.134 85.161,206.827 85.222,206.100 83.998 C 204.832 81.864,201.464 76.115,201.099 75.461 C 200.880 75.070,200.245 73.977,199.686 73.032 L 198.672 71.315 199.181 71.032 C 204.814 67.906,207.566 61.846,206.248 55.469 C 205.373 51.237,202.717 47.880,198.856 46.126 C 196.111 44.880,196.926 44.946,183.624 44.879 L 171.665 44.819 171.708 64.951 M221.541 64.958 L 221.583 85.083 227.417 85.083 L 233.250 85.083 233.292 64.958 L 233.335 44.833 227.417 44.833 L 221.499 44.833 221.541 64.958 M247.706 50.291 L 247.750 55.750 252.667 55.840 C 255.371 55.889,257.602 55.945,257.624 55.965 C 257.646 55.984,257.684 62.544,257.707 70.542 L 257.750 85.083 263.382 85.127 C 267.094 85.156,269.126 85.111,269.342 84.995 C 269.665 84.823,269.670 84.579,269.665 70.463 C 269.662 62.568,269.720 56.047,269.794 55.973 C 269.868 55.899,272.101 55.819,274.756 55.794 L 279.583 55.750 279.583 50.333 L 279.583 44.917 263.623 44.874 L 247.662 44.832 247.706 50.291 M293.541 64.958 L 293.583 85.083 299.417 85.083 L 305.250 85.083 305.292 64.958 L 305.335 44.833 299.417 44.833 L 293.499 44.833 293.541 64.958 M337.333 44.931 C 337.104 44.971,336.467 45.084,335.917 45.182 C 324.223 47.270,316.905 59.797,320.690 71.250 C 324.469 82.683,337.638 88.255,348.875 83.176 L 349.667 82.818 349.667 77.326 C 349.667 74.305,349.608 71.833,349.536 71.833 C 349.464 71.833,348.921 72.090,348.328 72.403 C 339.074 77.294,328.860 70.592,332.163 61.796 C 334.268 56.189,341.919 54.260,348.626 57.646 L 349.667 58.171 349.667 52.606 L 349.667 47.040 348.264 46.437 C 345.282 45.156,340.108 44.443,337.333 44.931 M375.583 44.987 C 368.380 46.150,363.890 50.586,363.931 56.500 C 363.978 63.337,368.477 67.280,378.000 68.832 C 382.827 69.618,384.083 70.311,384.083 72.189 C 384.083 73.989,382.994 74.588,379.750 74.572 C 374.852 74.548,370.010 73.398,365.508 71.191 C 364.733 70.811,364.040 70.500,363.966 70.500 C 363.614 70.500,363.818 81.814,364.174 82.004 C 365.811 82.880,370.025 84.002,374.167 84.665 C 387.304 86.769,396.004 81.546,395.999 71.559 C 395.996 65.727,393.788 62.603,387.943 60.161 C 385.289 59.052,383.088 58.596,378.338 58.172 C 376.143 57.977,375.425 57.595,375.830 56.840 C 376.760 55.101,383.822 55.813,390.583 58.326 C 391.867 58.803,393.048 59.234,393.208 59.283 C 393.482 59.367,393.500 59.027,393.499 53.728 L 393.498 48.083 391.633 47.347 C 386.206 45.204,379.945 44.283,375.583 44.987 M192.835 55.598 C 196.088 57.104,196.184 61.521,193.000 63.190 C 192.268 63.574,192.147 63.583,187.917 63.583 L 183.583 63.583 183.539 59.587 C 183.514 57.388,183.533 55.489,183.580 55.366 C 183.739 54.951,191.878 55.155,192.835 55.598 " stroke="none" fill="#fbfbfb" fill-rule="evenodd"></path><path id="path2" d="M226.261 1.417 C 226.201 1.738,226.080 2.000,225.992 2.000 C 225.905 2.000,225.833 2.182,225.833 2.405 C 225.833 2.627,225.734 2.909,225.612 3.031 C 225.490 3.153,225.342 3.546,225.284 3.905 C 225.226 4.263,225.104 4.602,225.014 4.658 C 224.923 4.714,224.798 5.076,224.737 5.463 C 224.675 5.850,224.565 6.167,224.493 6.167 C 224.421 6.167,224.312 6.467,224.250 6.833 C 224.188 7.200,224.079 7.500,224.007 7.500 C 223.936 7.500,223.836 7.811,223.785 8.191 C 223.734 8.571,223.621 8.927,223.534 8.982 C 223.446 9.038,223.322 9.327,223.258 9.625 C 223.193 9.923,223.063 10.167,222.968 10.167 C 222.871 10.167,222.828 10.386,222.869 10.665 C 222.922 11.029,222.866 11.187,222.659 11.253 C 222.468 11.313,222.349 11.582,222.293 12.078 C 222.190 12.988,221.864 13.333,221.105 13.333 C 220.783 13.333,220.481 13.396,220.433 13.473 C 220.386 13.550,218.038 13.660,215.217 13.717 C 211.911 13.784,210.067 13.882,210.030 13.994 C 209.998 14.089,209.716 14.167,209.403 14.167 L 208.833 14.167 208.833 15.262 C 208.833 16.259,209.043 16.833,209.408 16.833 C 209.461 16.833,209.829 17.171,210.224 17.583 C 210.619 17.996,211.054 18.333,211.189 18.333 C 211.325 18.333,211.657 18.632,211.926 18.996 C 212.196 19.361,212.506 19.661,212.616 19.663 C 212.725 19.665,213.184 20.042,213.635 20.500 C 214.086 20.958,214.524 21.333,214.607 21.333 C 214.690 21.333,215.076 21.671,215.464 22.083 C 215.852 22.496,216.263 22.837,216.377 22.840 C 216.490 22.844,216.767 23.069,216.992 23.340 C 217.217 23.612,217.498 23.833,217.617 23.833 C 217.736 23.833,217.833 23.946,217.833 24.083 C 217.833 24.221,217.955 24.333,218.105 24.333 C 218.412 24.333,218.362 25.938,218.048 26.143 C 217.958 26.202,217.837 26.662,217.779 27.166 C 217.720 27.669,217.596 28.107,217.503 28.138 C 217.410 28.169,217.333 28.483,217.333 28.835 C 217.333 29.188,217.231 29.578,217.107 29.703 C 216.982 29.828,216.826 30.433,216.760 31.048 C 216.694 31.663,216.580 32.167,216.506 32.167 C 216.432 32.167,216.320 32.579,216.257 33.083 C 216.194 33.587,216.065 34.000,215.970 34.000 C 215.870 34.000,215.826 34.248,215.865 34.583 C 215.902 34.904,215.873 35.167,215.800 35.167 C 215.727 35.167,215.667 35.767,215.667 36.500 C 215.667 37.278,215.597 37.833,215.500 37.833 C 215.408 37.833,215.333 37.908,215.333 38.000 C 215.333 38.097,215.889 38.167,216.667 38.167 C 217.444 38.167,218.000 38.097,218.000 38.000 C 218.000 37.908,218.146 37.833,218.325 37.833 C 218.504 37.833,218.710 37.740,218.783 37.625 C 218.933 37.391,219.398 37.079,219.958 36.837 C 220.165 36.748,220.333 36.598,220.333 36.504 C 220.333 36.410,220.434 36.333,220.558 36.333 C 220.681 36.333,220.916 36.185,221.080 36.004 C 221.244 35.823,221.443 35.715,221.523 35.764 C 221.604 35.814,221.711 35.744,221.763 35.609 C 221.815 35.474,222.040 35.318,222.262 35.262 C 222.485 35.206,222.667 35.087,222.667 34.997 C 222.667 34.907,222.762 34.833,222.880 34.833 C 222.997 34.833,223.221 34.683,223.378 34.500 C 223.535 34.317,223.769 34.167,223.897 34.167 C 224.026 34.167,224.174 34.054,224.227 33.917 C 224.280 33.779,224.430 33.667,224.560 33.667 C 224.691 33.667,224.841 33.554,224.894 33.417 C 224.946 33.279,225.129 33.167,225.300 33.167 C 225.471 33.167,225.707 32.986,225.825 32.765 C 225.958 32.518,226.247 32.324,226.577 32.262 C 226.915 32.199,227.196 32.006,227.338 31.741 C 227.525 31.392,227.587 31.364,227.706 31.577 C 227.785 31.718,227.959 31.833,228.092 31.833 C 228.356 31.833,229.020 32.425,228.895 32.549 C 228.853 32.592,229.009 32.675,229.242 32.733 C 229.476 32.792,229.667 32.913,229.667 33.003 C 229.667 33.093,229.782 33.167,229.922 33.167 C 230.062 33.167,230.220 33.279,230.273 33.417 C 230.326 33.554,230.508 33.667,230.679 33.667 C 230.849 33.667,231.069 33.817,231.167 34.000 C 231.265 34.183,231.455 34.333,231.589 34.333 C 231.723 34.333,231.833 34.407,231.833 34.497 C 231.833 34.587,232.015 34.706,232.238 34.762 C 232.460 34.818,232.683 34.969,232.733 35.098 C 232.782 35.228,232.967 35.333,233.144 35.333 C 233.320 35.333,233.508 35.446,233.560 35.583 C 233.613 35.721,233.763 35.833,233.894 35.833 C 234.024 35.833,234.174 35.946,234.227 36.083 C 234.280 36.221,234.463 36.333,234.633 36.333 C 234.804 36.333,235.041 36.515,235.160 36.737 C 235.279 36.959,235.554 37.186,235.771 37.240 C 235.989 37.295,236.167 37.413,236.167 37.503 C 236.167 37.593,236.275 37.667,236.408 37.667 C 236.541 37.667,236.715 37.783,236.794 37.924 C 236.909 38.130,237.205 38.172,238.261 38.133 L 239.583 38.083 239.631 36.542 C 239.659 35.652,239.613 35.000,239.522 35.000 C 239.435 35.000,239.311 34.606,239.245 34.125 C 239.180 33.644,239.058 33.207,238.975 33.154 C 238.892 33.101,238.778 32.651,238.720 32.154 C 238.663 31.657,238.550 31.207,238.470 31.154 C 238.390 31.101,238.278 30.651,238.220 30.154 C 238.163 29.657,238.048 29.205,237.965 29.151 C 237.882 29.097,237.771 28.628,237.717 28.109 C 237.664 27.591,237.556 27.167,237.477 27.167 C 237.398 27.167,237.333 27.054,237.333 26.917 C 237.333 26.779,237.268 26.667,237.187 26.667 C 237.107 26.667,237.079 26.329,237.125 25.917 C 237.176 25.466,237.143 25.167,237.041 25.167 C 236.792 25.167,236.676 24.557,236.886 24.347 C 236.985 24.248,237.168 24.167,237.293 24.167 C 237.525 24.167,238.500 23.195,238.500 22.963 C 238.500 22.892,238.635 22.833,238.801 22.833 C 238.966 22.833,239.389 22.496,239.741 22.083 C 240.093 21.671,240.482 21.333,240.605 21.333 C 240.729 21.333,241.031 21.108,241.276 20.833 C 241.521 20.558,241.830 20.333,241.962 20.333 C 242.107 20.333,242.164 20.234,242.106 20.083 C 242.043 19.919,242.112 19.833,242.305 19.833 C 242.467 19.833,242.783 19.612,243.008 19.340 C 243.233 19.069,243.505 18.844,243.613 18.840 C 243.841 18.832,244.091 18.595,244.650 17.860 C 244.870 17.570,245.175 17.333,245.327 17.333 C 245.895 17.333,246.333 16.429,246.333 15.257 L 246.333 14.167 245.264 14.167 C 244.676 14.167,244.169 14.090,244.138 13.997 C 244.103 13.891,242.290 13.788,239.291 13.721 C 236.656 13.661,234.500 13.550,234.500 13.473 C 234.500 13.396,234.246 13.333,233.934 13.333 C 233.360 13.333,233.167 13.123,233.167 12.500 C 233.167 12.332,233.087 12.168,232.989 12.135 C 232.892 12.103,232.769 11.759,232.717 11.371 C 232.665 10.984,232.564 10.667,232.491 10.667 C 232.419 10.667,232.307 10.423,232.242 10.125 C 232.178 9.827,232.051 9.536,231.961 9.479 C 231.871 9.422,231.758 9.028,231.710 8.604 C 231.662 8.180,231.561 7.833,231.486 7.833 C 231.410 7.833,231.299 7.571,231.239 7.250 C 231.179 6.929,231.073 6.667,231.003 6.667 C 230.933 6.667,230.825 6.350,230.763 5.963 C 230.702 5.576,230.574 5.212,230.480 5.154 C 230.385 5.096,230.266 4.737,230.215 4.357 C 230.164 3.977,230.064 3.667,229.991 3.667 C 229.919 3.667,229.807 3.423,229.742 3.125 C 229.678 2.827,229.551 2.536,229.461 2.479 C 229.371 2.422,229.258 2.028,229.210 1.604 L 229.123 0.833 227.747 0.833 L 226.370 0.833 226.261 1.417 M227.871 10.768 C 227.824 11.013,227.876 11.256,227.990 11.327 C 228.101 11.396,228.234 11.763,228.285 12.143 C 228.336 12.523,228.439 12.833,228.514 12.833 C 228.590 12.833,228.703 13.115,228.766 13.458 C 228.830 13.802,228.951 14.129,229.037 14.184 C 229.122 14.240,229.234 14.596,229.285 14.976 C 229.336 15.356,229.436 15.667,229.509 15.667 C 229.581 15.667,229.693 15.906,229.757 16.199 C 229.977 17.200,230.115 17.244,233.196 17.308 C 234.738 17.341,236.000 17.434,236.000 17.517 C 236.000 17.599,236.380 17.667,236.845 17.667 C 237.597 17.667,237.663 17.694,237.440 17.917 C 237.303 18.054,237.135 18.167,237.067 18.167 C 236.999 18.167,236.619 18.504,236.224 18.917 C 235.829 19.329,235.430 19.667,235.338 19.667 C 235.245 19.667,234.852 20.004,234.464 20.417 C 234.076 20.829,233.689 21.167,233.604 21.167 C 232.928 21.167,232.333 22.332,232.333 23.658 C 232.333 24.396,232.403 25.000,232.488 25.000 C 232.573 25.000,232.694 25.412,232.757 25.917 C 232.820 26.421,232.932 26.833,233.006 26.833 C 233.080 26.833,233.194 27.340,233.259 27.958 C 233.324 28.577,233.431 29.121,233.496 29.167 C 233.562 29.212,233.667 29.475,233.729 29.750 C 233.792 30.025,233.785 30.170,233.713 30.071 C 233.642 29.973,233.447 29.842,233.281 29.781 C 233.115 29.719,233.027 29.592,233.085 29.497 C 233.144 29.402,233.130 29.335,233.054 29.347 C 232.797 29.389,232.167 29.128,232.167 28.981 C 232.167 28.900,232.019 28.833,231.839 28.833 C 231.622 28.833,231.542 28.752,231.602 28.593 C 231.668 28.423,231.525 28.322,231.109 28.244 C 230.787 28.183,230.483 28.029,230.433 27.900 C 230.384 27.772,230.256 27.667,230.149 27.667 C 230.042 27.667,229.769 27.466,229.541 27.220 C 228.808 26.429,226.093 26.454,225.663 27.257 C 225.542 27.482,225.304 27.667,225.133 27.667 C 224.963 27.667,224.780 27.779,224.727 27.917 C 224.674 28.054,224.524 28.167,224.394 28.167 C 224.263 28.167,224.113 28.279,224.060 28.417 C 224.008 28.554,223.826 28.667,223.657 28.667 C 223.488 28.667,223.290 28.766,223.217 28.888 C 223.143 29.009,222.971 29.162,222.833 29.227 C 222.218 29.520,221.803 29.811,221.582 30.102 C 221.364 30.391,221.343 30.392,221.339 30.125 C 221.336 29.965,221.399 29.833,221.479 29.833 C 221.558 29.833,221.673 29.458,221.734 29.000 C 221.795 28.542,221.908 28.167,221.984 28.167 C 222.061 28.167,222.175 27.647,222.237 27.011 C 222.300 26.375,222.430 25.829,222.525 25.797 C 222.624 25.764,222.734 24.985,222.780 23.995 L 222.860 22.250 222.338 21.708 C 222.051 21.410,221.708 21.167,221.575 21.167 C 221.442 21.167,221.333 21.054,221.333 20.917 C 221.333 20.779,221.257 20.667,221.164 20.667 C 221.071 20.667,220.671 20.329,220.276 19.917 C 219.881 19.504,219.501 19.167,219.432 19.167 C 219.364 19.167,219.083 18.942,218.808 18.667 C 218.533 18.392,218.201 18.167,218.071 18.167 C 217.940 18.167,217.833 18.054,217.833 17.917 C 217.833 17.750,218.000 17.667,218.333 17.667 C 218.608 17.667,218.833 17.592,218.833 17.500 C 218.833 17.397,219.770 17.330,221.292 17.324 C 224.340 17.312,225.029 17.204,225.248 16.707 C 225.338 16.501,225.470 16.333,225.540 16.333 C 225.609 16.333,225.667 16.118,225.667 15.854 C 225.667 15.590,225.770 15.289,225.896 15.184 C 226.022 15.079,226.173 14.695,226.231 14.330 C 226.290 13.965,226.404 13.667,226.486 13.667 C 226.568 13.667,226.687 13.292,226.750 12.833 C 226.813 12.375,226.924 12.000,226.997 12.000 C 227.070 12.000,227.179 11.737,227.239 11.417 C 227.299 11.096,227.420 10.833,227.508 10.833 C 227.595 10.833,227.667 10.721,227.667 10.583 C 227.667 10.446,227.731 10.333,227.810 10.333 C 227.889 10.333,227.916 10.529,227.871 10.768 M2.667 53.163 L 2.667 88.167 24.750 88.167 C 39.361 88.167,46.833 88.110,46.833 88.000 C 46.833 87.908,47.058 87.833,47.333 87.833 C 47.608 87.833,47.833 87.773,47.833 87.700 C 47.833 87.627,48.096 87.598,48.417 87.635 C 48.738 87.673,49.000 87.629,49.000 87.537 C 49.000 87.446,49.337 87.321,49.750 87.259 C 50.163 87.197,50.500 87.077,50.500 86.992 C 50.500 86.907,50.800 86.789,51.167 86.731 C 51.533 86.672,51.833 86.565,51.833 86.492 C 51.833 86.419,52.052 86.312,52.319 86.253 C 52.587 86.194,52.847 86.038,52.898 85.906 C 52.948 85.775,53.104 85.667,53.245 85.667 C 53.385 85.667,53.500 85.592,53.500 85.500 C 53.500 85.408,53.652 85.333,53.839 85.333 C 54.025 85.333,54.220 85.221,54.273 85.083 C 54.326 84.946,54.468 84.833,54.589 84.833 C 54.710 84.833,54.955 84.648,55.132 84.422 C 55.310 84.196,55.500 84.056,55.554 84.110 C 55.707 84.263,58.202 81.692,58.085 81.502 C 58.027 81.409,58.049 81.333,58.132 81.333 C 58.396 81.333,59.167 80.528,59.167 80.253 C 59.167 80.108,59.279 79.946,59.417 79.894 C 59.554 79.841,59.667 79.697,59.667 79.574 C 59.667 79.451,59.790 79.281,59.942 79.196 C 60.112 79.101,60.183 78.915,60.130 78.709 C 60.075 78.501,60.157 78.294,60.348 78.156 C 60.517 78.034,60.701 77.725,60.757 77.468 C 60.814 77.210,60.921 77.000,60.995 77.000 C 61.069 77.000,61.179 76.737,61.239 76.417 C 61.299 76.096,61.411 75.833,61.488 75.833 C 61.565 75.833,61.680 75.421,61.743 74.917 C 61.806 74.412,61.936 74.000,62.033 74.000 C 62.144 74.000,62.179 73.691,62.129 73.167 C 62.085 72.708,62.113 72.333,62.191 72.333 C 62.360 72.333,62.386 68.108,62.218 67.941 C 62.155 67.877,62.123 67.452,62.147 66.996 C 62.173 66.505,62.121 66.167,62.018 66.167 C 61.923 66.167,61.795 65.792,61.734 65.333 C 61.673 64.875,61.559 64.500,61.480 64.500 C 61.402 64.500,61.289 64.200,61.231 63.833 C 61.172 63.467,61.065 63.167,60.992 63.167 C 60.919 63.167,60.810 62.942,60.750 62.667 C 60.690 62.392,60.579 62.167,60.505 62.167 C 60.430 62.167,60.320 61.970,60.260 61.730 C 60.200 61.490,60.041 61.184,59.908 61.051 C 59.775 60.918,59.667 60.665,59.667 60.488 C 59.667 60.279,59.552 60.167,59.339 60.167 C 59.129 60.167,59.042 60.084,59.098 59.938 C 59.146 59.813,59.069 59.665,58.926 59.610 C 58.783 59.555,58.667 59.371,58.667 59.200 C 58.667 59.029,58.477 58.788,58.246 58.664 C 58.014 58.540,57.781 58.265,57.727 58.053 C 57.674 57.840,57.526 57.667,57.399 57.667 C 57.271 57.667,57.167 57.554,57.167 57.417 C 57.167 57.279,57.035 57.163,56.875 57.159 C 56.715 57.155,56.358 56.858,56.083 56.500 C 55.808 56.142,55.455 55.845,55.298 55.841 C 55.140 55.837,54.931 55.683,54.833 55.500 C 54.735 55.317,54.516 55.167,54.345 55.167 C 54.175 55.167,53.992 55.054,53.940 54.917 C 53.887 54.779,53.737 54.667,53.606 54.667 C 53.476 54.667,53.326 54.554,53.273 54.417 C 53.220 54.279,53.062 54.167,52.922 54.167 C 52.782 54.167,52.667 54.093,52.667 54.002 C 52.667 53.911,52.367 53.789,52.000 53.731 C 51.633 53.672,51.333 53.567,51.333 53.497 C 51.333 53.427,51.137 53.320,50.897 53.260 C 50.208 53.087,49.860 52.667,50.405 52.667 C 50.640 52.667,50.833 52.595,50.833 52.508 C 50.833 52.420,51.096 52.299,51.417 52.239 C 51.738 52.179,52.000 52.063,52.000 51.981 C 52.000 51.900,52.153 51.833,52.341 51.833 C 52.528 51.833,52.854 51.661,53.065 51.450 C 53.276 51.239,53.535 51.095,53.641 51.130 C 53.747 51.166,53.833 51.119,53.833 51.027 C 53.833 50.935,54.058 50.810,54.333 50.750 C 54.608 50.690,54.833 50.573,54.833 50.490 C 54.833 50.407,55.022 50.292,55.253 50.234 C 55.518 50.168,55.656 50.028,55.628 49.856 C 55.603 49.706,55.671 49.600,55.779 49.621 C 56.025 49.668,58.662 47.015,58.617 46.767 C 58.598 46.666,58.706 46.603,58.856 46.628 C 59.028 46.656,59.168 46.518,59.234 46.253 C 59.292 46.022,59.413 45.833,59.503 45.833 C 59.593 45.833,59.667 45.718,59.667 45.578 C 59.667 45.438,59.779 45.280,59.917 45.227 C 60.054 45.174,60.167 45.044,60.167 44.938 C 60.167 44.832,60.317 44.465,60.500 44.123 C 60.683 43.781,60.833 43.388,60.833 43.251 C 60.833 43.113,60.900 43.000,60.981 43.000 C 61.063 43.000,61.179 42.737,61.239 42.417 C 61.299 42.096,61.429 41.833,61.526 41.833 C 61.629 41.833,61.674 41.623,61.631 41.333 C 61.591 41.058,61.620 40.833,61.696 40.833 C 61.771 40.833,61.833 40.646,61.833 40.417 C 61.833 40.188,61.918 40.000,62.021 40.000 C 62.146 40.000,62.182 39.721,62.129 39.167 C 62.085 38.708,62.113 38.333,62.191 38.333 C 62.377 38.333,62.377 34.380,62.191 34.265 C 62.112 34.216,62.084 33.799,62.129 33.338 C 62.178 32.823,62.143 32.500,62.038 32.500 C 61.943 32.500,61.814 32.050,61.750 31.500 C 61.686 30.950,61.567 30.500,61.486 30.500 C 61.404 30.500,61.289 30.200,61.231 29.833 C 61.172 29.467,61.065 29.167,60.992 29.167 C 60.919 29.167,60.810 28.942,60.750 28.667 C 60.690 28.392,60.577 28.167,60.500 28.167 C 60.423 28.167,60.312 27.948,60.253 27.681 C 60.194 27.413,60.038 27.153,59.906 27.102 C 59.775 27.052,59.667 26.896,59.667 26.755 C 59.667 26.615,59.593 26.500,59.503 26.500 C 59.413 26.500,59.294 26.318,59.238 26.095 C 59.182 25.873,59.031 25.650,58.902 25.601 C 58.772 25.551,58.663 25.377,58.660 25.214 C 58.656 25.050,58.431 24.733,58.160 24.508 C 57.888 24.283,57.667 24.002,57.667 23.883 C 57.667 23.764,57.554 23.667,57.417 23.667 C 57.279 23.667,57.167 23.554,57.167 23.417 C 57.167 23.279,57.071 23.167,56.954 23.167 C 56.837 23.167,56.424 22.829,56.036 22.417 C 55.648 22.004,55.218 21.667,55.082 21.667 C 54.945 21.667,54.833 21.590,54.833 21.496 C 54.833 21.402,54.665 21.252,54.458 21.163 C 53.898 20.921,53.433 20.609,53.283 20.375 C 53.210 20.260,52.974 20.167,52.760 20.167 C 52.545 20.167,52.326 20.054,52.273 19.917 C 52.220 19.779,51.987 19.667,51.755 19.667 C 51.523 19.667,51.333 19.598,51.333 19.513 C 51.333 19.429,51.090 19.307,50.792 19.242 C 50.494 19.178,50.203 19.051,50.146 18.961 C 50.088 18.871,49.676 18.757,49.229 18.708 C 48.782 18.659,48.363 18.536,48.298 18.434 C 48.212 18.302,41.813 18.237,25.423 18.205 L 2.667 18.160 2.667 53.163 M65.833 53.167 L 65.833 88.167 88.750 88.167 L 111.667 88.167 111.667 78.250 L 111.667 68.333 99.417 68.333 L 87.167 68.333 87.167 43.250 L 87.167 18.167 76.500 18.167 L 65.833 18.167 65.833 53.167 M37.466 34.445 C 37.532 34.552,37.787 34.690,38.031 34.752 C 38.276 34.813,38.516 34.969,38.566 35.098 C 38.616 35.228,38.731 35.333,38.823 35.333 C 39.021 35.333,40.167 36.453,40.167 36.647 C 40.167 36.721,40.317 36.955,40.500 37.167 C 40.683 37.378,40.833 37.727,40.833 37.942 C 40.833 38.157,40.908 38.333,41.000 38.333 C 41.092 38.333,41.167 38.558,41.167 38.833 C 41.167 39.108,41.223 39.333,41.292 39.333 C 41.360 39.333,41.417 39.633,41.417 40.000 C 41.417 40.367,41.360 40.667,41.292 40.667 C 41.223 40.667,41.167 40.892,41.167 41.167 C 41.167 41.442,41.100 41.667,41.019 41.667 C 40.937 41.667,40.821 41.929,40.761 42.250 C 40.701 42.571,40.580 42.833,40.492 42.833 C 40.405 42.833,40.333 42.953,40.333 43.100 C 40.333 43.405,38.885 44.833,38.575 44.833 C 38.462 44.833,38.326 44.946,38.273 45.083 C 38.220 45.221,38.019 45.333,37.827 45.333 C 37.634 45.333,37.364 45.446,37.226 45.583 C 37.012 45.797,36.024 45.833,30.405 45.833 L 23.833 45.833 23.833 39.987 L 23.833 34.140 30.590 34.195 C 35.519 34.235,37.378 34.303,37.466 34.445 M147.125 44.790 C 147.606 44.823,148.394 44.823,148.875 44.790 C 149.356 44.756,148.962 44.728,148.000 44.728 C 147.037 44.728,146.644 44.756,147.125 44.790 M171.611 44.778 C 171.457 44.932,171.471 84.962,171.625 85.058 C 171.694 85.100,171.731 76.068,171.707 64.985 L 171.664 44.836 182.957 44.792 L 194.250 44.748 182.986 44.707 C 176.791 44.685,171.672 44.717,171.611 44.778 M227.460 44.791 L 233.336 44.838 233.293 64.994 C 233.269 76.080,233.307 85.093,233.376 85.024 C 233.445 84.955,233.482 75.865,233.459 64.824 L 233.417 44.750 227.500 44.747 L 221.583 44.744 227.460 44.791 M253.417 44.789 C 268.264 44.904,279.628 44.905,279.558 44.792 C 279.515 44.723,272.341 44.684,263.615 44.706 C 254.889 44.728,250.300 44.765,253.417 44.789 M293.447 44.776 C 293.291 44.931,293.303 84.961,293.458 85.058 C 293.527 85.100,293.564 76.067,293.540 64.984 L 293.497 44.833 299.417 44.833 L 305.336 44.833 305.293 64.992 C 305.269 76.079,305.307 85.093,305.376 85.024 C 305.445 84.955,305.482 75.865,305.459 64.824 L 305.417 44.750 299.488 44.706 C 296.228 44.682,293.509 44.713,293.447 44.776 M339.292 44.790 C 339.773 44.823,340.560 44.823,341.042 44.790 C 341.523 44.756,341.129 44.728,340.167 44.728 C 339.204 44.728,338.810 44.756,339.292 44.790 M378.125 44.790 C 378.790 44.822,379.877 44.822,380.542 44.790 C 381.206 44.759,380.662 44.733,379.333 44.733 C 378.004 44.733,377.460 44.759,378.125 44.790 M202.750 48.833 C 203.201 49.292,203.608 49.667,203.654 49.667 C 203.700 49.667,203.368 49.292,202.917 48.833 C 202.465 48.375,202.058 48.000,202.013 48.000 C 201.967 48.000,202.299 48.375,202.750 48.833 M393.539 53.694 C 393.509 57.997,393.451 59.325,393.292 59.390 C 393.128 59.455,393.130 59.477,393.297 59.487 C 393.658 59.509,393.673 59.247,393.625 53.582 L 393.579 48.083 393.539 53.694 M133.245 50.708 L 132.250 51.750 133.292 50.755 C 133.865 50.208,134.333 49.739,134.333 49.714 C 134.333 49.590,134.169 49.741,133.245 50.708 M183.611 55.278 C 183.457 55.432,183.471 63.462,183.625 63.558 C 183.694 63.600,183.729 61.769,183.703 59.487 L 183.656 55.339 187.619 55.292 L 191.583 55.244 187.653 55.205 C 185.491 55.184,183.672 55.217,183.611 55.278 M247.666 55.875 C 247.667 55.944,249.860 55.984,252.542 55.965 C 257.428 55.930,256.873 55.872,250.875 55.793 C 249.110 55.769,247.666 55.806,247.666 55.875 M274.667 55.833 L 269.750 55.924 274.615 55.962 C 277.720 55.986,279.518 55.940,279.583 55.833 C 279.640 55.742,279.663 55.684,279.635 55.705 C 279.607 55.725,277.371 55.783,274.667 55.833 M378.708 55.955 C 379.052 55.991,379.615 55.991,379.958 55.955 C 380.302 55.919,380.021 55.889,379.333 55.889 C 378.646 55.889,378.365 55.919,378.708 55.955 M206.558 58.667 C 206.558 59.446,206.587 59.765,206.622 59.375 C 206.657 58.985,206.657 58.348,206.622 57.958 C 206.587 57.569,206.558 57.887,206.558 58.667 M334.075 58.875 L 333.417 59.583 334.125 58.925 C 334.515 58.562,334.833 58.243,334.833 58.216 C 334.833 58.090,334.688 58.216,334.075 58.875 M379.127 58.285 C 379.334 58.324,379.634 58.323,379.794 58.281 C 379.953 58.239,379.783 58.207,379.417 58.209 C 379.050 58.211,378.920 58.245,379.127 58.285 M37.566 59.042 C 37.726 59.202,37.964 59.333,38.095 59.333 C 38.226 59.333,38.333 59.408,38.333 59.500 C 38.333 59.592,38.448 59.667,38.588 59.667 C 38.878 59.667,40.333 61.063,40.333 61.341 C 40.333 61.441,40.446 61.636,40.583 61.774 C 40.721 61.911,40.833 62.206,40.833 62.429 C 40.833 62.651,40.908 62.833,41.000 62.833 C 41.092 62.833,41.167 63.058,41.167 63.333 C 41.167 63.608,41.227 63.833,41.301 63.833 C 41.375 63.833,41.365 64.358,41.278 65.000 C 41.191 65.642,41.055 66.167,40.977 66.167 C 40.898 66.167,40.833 66.357,40.833 66.589 C 40.833 66.821,40.728 67.051,40.598 67.101 C 40.469 67.150,40.318 67.371,40.263 67.592 C 40.143 68.068,39.160 69.093,38.675 69.247 C 38.487 69.307,38.333 69.426,38.333 69.511 C 38.333 69.597,38.226 69.667,38.095 69.667 C 37.964 69.667,37.726 69.798,37.566 69.958 C 37.300 70.225,36.690 70.255,30.554 70.302 L 23.833 70.354 23.833 64.502 L 23.833 58.649 30.554 58.700 C 36.692 58.746,37.299 58.775,37.566 59.042 M393.083 63.333 C 393.535 63.792,393.942 64.167,393.987 64.167 C 394.033 64.167,393.701 63.792,393.250 63.333 C 392.799 62.875,392.392 62.500,392.346 62.500 C 392.300 62.500,392.632 62.875,393.083 63.333 M127.394 64.583 C 127.395 65.500,127.423 65.854,127.456 65.369 C 127.490 64.885,127.490 64.135,127.456 63.703 C 127.421 63.270,127.394 63.667,127.394 64.583 M319.553 64.500 C 319.553 65.096,319.584 65.340,319.621 65.042 C 319.658 64.744,319.658 64.256,319.621 63.958 C 319.584 63.660,319.553 63.904,319.553 64.500 M331.550 64.833 C 331.550 65.337,331.581 65.544,331.619 65.292 C 331.658 65.040,331.658 64.627,331.619 64.375 C 331.581 64.123,331.550 64.329,331.550 64.833 M334.083 71.167 C 334.441 71.533,334.772 71.833,334.818 71.833 C 334.863 71.833,334.608 71.533,334.250 71.167 C 333.892 70.800,333.562 70.500,333.516 70.500 C 333.470 70.500,333.725 70.800,334.083 71.167 M396.050 71.833 C 396.050 72.337,396.081 72.544,396.119 72.292 C 396.158 72.040,396.158 71.627,396.119 71.375 C 396.081 71.123,396.050 71.329,396.050 71.833 M384.039 72.167 C 384.039 72.487,384.073 72.619,384.115 72.458 C 384.157 72.298,384.157 72.035,384.115 71.875 C 384.073 71.715,384.039 71.846,384.039 72.167 M183.611 72.444 C 183.550 72.506,183.500 75.349,183.500 78.764 C 183.500 82.838,183.441 85.001,183.329 85.057 C 183.235 85.104,183.254 85.122,183.371 85.099 C 183.538 85.065,183.593 83.702,183.627 78.767 L 183.671 72.479 185.487 72.531 C 186.485 72.560,187.267 72.527,187.225 72.458 C 187.129 72.304,183.765 72.291,183.611 72.444 M149.042 74.115 C 149.202 74.157,149.465 74.157,149.625 74.115 C 149.785 74.073,149.654 74.039,149.333 74.039 C 149.012 74.039,148.881 74.073,149.042 74.115 M341.294 74.118 C 341.501 74.158,341.801 74.156,341.960 74.115 C 342.120 74.073,341.950 74.040,341.583 74.042 C 341.217 74.044,341.086 74.078,341.294 74.118 M378.792 74.621 C 379.090 74.658,379.577 74.658,379.875 74.621 C 380.173 74.584,379.929 74.553,379.333 74.553 C 378.738 74.553,378.494 74.584,378.792 74.621 M133.417 79.333 C 133.775 79.700,134.105 80.000,134.151 80.000 C 134.197 80.000,133.941 79.700,133.583 79.333 C 133.225 78.967,132.895 78.667,132.849 78.667 C 132.803 78.667,133.059 78.967,133.417 79.333 M147.048 85.123 C 147.578 85.157,148.403 85.156,148.881 85.123 C 149.359 85.089,148.925 85.062,147.917 85.062 C 146.908 85.063,146.517 85.090,147.048 85.123 M339.208 85.123 C 339.735 85.156,340.598 85.156,341.125 85.123 C 341.652 85.090,341.221 85.063,340.167 85.063 C 339.112 85.063,338.681 85.090,339.208 85.123 M377.792 85.121 C 378.090 85.158,378.577 85.158,378.875 85.121 C 379.173 85.084,378.929 85.053,378.333 85.053 C 377.738 85.053,377.494 85.084,377.792 85.121 M381.542 85.115 C 381.702 85.157,381.965 85.157,382.125 85.115 C 382.285 85.073,382.154 85.039,381.833 85.039 C 381.512 85.039,381.381 85.073,381.542 85.115 " stroke="none" fill="#fb2374" fill-rule="evenodd"></path></g></svg>
