<?xml version="1.0" standalone="no"?>
<!DOCTYPE svg PUBLIC "-//W3C//DTD SVG 20010904//EN"
 "http://www.w3.org/TR/2001/REC-SVG-20010904/DTD/svg10.dtd">
<svg version="1.0" xmlns="http://www.w3.org/2000/svg"
 width="326.000000pt" height="326.000000pt" viewBox="0 0 3264.000000 3264.000000"
 preserveAspectRatio="xMidYMid meet">

<g transform="translate(0.000000,3264.000000) scale(0.100000,-0.100000)"
fill="#4285F4" stroke="none">
<path d="M19965 32500 c-11 -5 -55 -9 -97 -9 -42 -1 -89 -6 -105 -12 -15 -7
-66 -15 -113 -20 -133 -12 -254 -32 -360 -57 -25 -6 -70 -16 -100 -22 -30 -7
-75 -17 -100 -25 -25 -7 -70 -18 -100 -25 -92 -20 -466 -136 -485 -150 -5 -4
-48 -20 -95 -35 -47 -16 -103 -38 -125 -50 -22 -12 -58 -28 -80 -35 -22 -7
-74 -30 -115 -50 -41 -21 -86 -41 -100 -45 -14 -4 -50 -22 -80 -40 -30 -18
-112 -62 -182 -98 -70 -36 -140 -74 -156 -86 -17 -12 -33 -21 -36 -21 -22 0
-503 -336 -620 -433 -38 -32 -82 -67 -153 -122 -31 -24 -258 -236 -351 -328
-80 -79 -227 -243 -271 -302 -29 -38 -77 -97 -107 -130 -54 -60 -64 -73 -188
-235 -36 -47 -74 -96 -85 -110 -22 -28 -85 -117 -162 -230 -66 -97 -147 -180
-175 -180 -25 0 -120 97 -184 190 -54 78 -251 283 -300 312 -19 12 -54 38 -76
57 -95 82 -130 107 -289 204 -22 14 -76 44 -120 67 -44 23 -84 45 -90 50 -24
18 -103 58 -140 70 -22 7 -49 18 -60 25 -79 49 -642 239 -810 273 -27 6 -90
20 -140 33 -99 24 -157 35 -256 48 -37 5 -72 12 -79 16 -19 12 -211 36 -420
52 -58 5 -112 13 -120 18 -24 16 -274 27 -605 27 -331 0 -581 -11 -605 -27 -8
-5 -62 -13 -120 -18 -100 -8 -165 -14 -346 -35 -44 -5 -87 -12 -94 -17 -12 -7
-50 -13 -216 -33 -39 -5 -77 -13 -85 -18 -8 -4 -34 -11 -59 -15 -41 -7 -103
-18 -220 -39 -53 -10 -409 -99 -495 -125 -103 -30 -518 -167 -550 -180 -39
-17 -225 -92 -290 -117 -70 -27 -471 -226 -520 -259 -22 -14 -64 -39 -94 -54
-57 -28 -389 -247 -455 -299 -21 -17 -57 -47 -80 -66 -22 -20 -54 -44 -71 -55
-77 -47 -453 -411 -532 -515 -23 -30 -58 -75 -77 -100 -121 -155 -176 -231
-199 -275 -13 -28 -53 -96 -88 -152 -150 -240 -379 -692 -441 -868 -6 -16 -18
-48 -28 -70 -20 -44 -133 -396 -149 -460 -5 -22 -20 -80 -34 -130 -14 -49 -30
-114 -36 -142 -6 -29 -16 -77 -22 -105 -6 -29 -17 -76 -25 -104 -8 -28 -14
-60 -14 -72 0 -22 -9 -68 -32 -159 -6 -27 -15 -79 -20 -118 -4 -38 -12 -106
-18 -150 -5 -44 -14 -125 -18 -180 -4 -55 -12 -107 -17 -115 -22 -34 -27 -379
-33 -2355 l-7 -2070 -96 -145 c-94 -142 -202 -311 -247 -387 -12 -21 -38 -65
-58 -98 -20 -33 -52 -89 -71 -125 -19 -36 -41 -72 -47 -80 -7 -8 -27 -44 -46
-80 -18 -36 -38 -72 -45 -80 -7 -8 -52 -94 -100 -190 -48 -96 -100 -193 -114
-215 -30 -44 -105 -195 -116 -235 -4 -13 -40 -90 -80 -170 -40 -80 -76 -156
-80 -170 -4 -14 -24 -59 -45 -100 -20 -41 -41 -86 -45 -100 -4 -14 -20 -52
-35 -85 -15 -33 -53 -125 -84 -205 -31 -80 -63 -158 -71 -175 -26 -56 -83
-209 -165 -440 -21 -60 -45 -124 -54 -140 -8 -17 -22 -60 -31 -95 -9 -36 -47
-159 -84 -275 -62 -191 -88 -277 -126 -420 -7 -27 -22 -81 -33 -120 -21 -75
-48 -178 -62 -235 -5 -19 -19 -73 -31 -120 -12 -47 -25 -105 -29 -130 -7 -43
-29 -145 -52 -240 -6 -25 -15 -67 -19 -95 -5 -27 -13 -72 -19 -100 -5 -27 -14
-76 -19 -107 -5 -32 -13 -62 -16 -69 -4 -6 -11 -41 -16 -78 -5 -36 -14 -91
-19 -121 -6 -30 -14 -89 -18 -131 -5 -42 -12 -81 -17 -88 -10 -17 -34 -194
-53 -386 -4 -50 -12 -97 -17 -105 -9 -15 -22 -129 -33 -310 -4 -58 -11 -112
-17 -120 -15 -22 -41 -454 -53 -880 -5 -170 -12 -275 -20 -293 -17 -41 -17
-984 0 -1024 8 -18 15 -119 20 -278 11 -345 38 -742 53 -765 5 -8 13 -64 17
-125 15 -206 24 -290 33 -304 5 -8 13 -53 17 -100 9 -82 14 -124 36 -287 5
-40 13 -77 17 -84 4 -7 12 -44 17 -84 23 -173 45 -303 53 -316 4 -6 11 -35 15
-63 5 -29 14 -72 20 -97 5 -25 14 -70 19 -100 5 -30 13 -66 19 -80 6 -14 15
-52 22 -85 35 -183 78 -349 168 -645 61 -201 272 -844 286 -870 7 -14 19 -43
26 -65 18 -58 78 -213 101 -261 10 -22 19 -44 19 -48 0 -4 6 -22 14 -39 8 -18
27 -61 41 -97 15 -36 38 -92 52 -125 13 -33 44 -98 67 -145 24 -47 49 -103 56
-125 16 -50 295 -609 324 -650 11 -16 46 -79 77 -140 31 -60 80 -148 109 -195
29 -47 62 -103 73 -125 21 -44 88 -150 244 -387 56 -87 103 -161 103 -165 0
-5 18 -31 39 -60 22 -28 71 -98 110 -155 39 -57 95 -137 125 -178 30 -41 63
-86 73 -100 16 -22 133 -176 229 -300 19 -25 53 -68 77 -97 23 -28 62 -77 87
-108 25 -31 66 -80 91 -108 25 -29 56 -68 69 -87 22 -33 65 -81 246 -278 39
-42 81 -93 94 -112 13 -19 32 -41 42 -48 10 -7 25 -28 34 -45 22 -43 555 -579
624 -627 30 -21 91 -75 135 -121 44 -45 96 -93 115 -107 19 -14 70 -58 112
-97 132 -120 192 -171 228 -195 19 -13 55 -42 80 -65 25 -23 57 -50 71 -61 15
-10 57 -44 95 -75 38 -30 89 -70 114 -87 25 -18 70 -53 100 -78 30 -24 93 -71
140 -104 47 -32 105 -75 130 -94 45 -36 614 -416 732 -490 59 -37 194 -118
325 -195 32 -18 96 -53 141 -77 46 -24 96 -52 110 -63 34 -23 798 -405 832
-415 14 -5 61 -25 105 -46 44 -21 134 -60 200 -86 66 -26 129 -53 140 -59 11
-7 38 -18 60 -25 46 -14 206 -75 250 -95 17 -7 73 -27 125 -45 52 -18 113 -40
135 -50 61 -28 498 -165 730 -230 44 -13 116 -33 160 -46 115 -34 242 -65 300
-75 28 -5 68 -13 90 -19 22 -6 63 -15 90 -19 28 -5 88 -18 135 -29 47 -12 112
-26 145 -32 33 -7 78 -16 100 -22 53 -13 126 -26 206 -37 37 -5 72 -12 78 -16
13 -7 99 -23 201 -35 157 -20 209 -28 221 -36 8 -4 54 -12 104 -16 49 -5 126
-13 170 -18 44 -6 130 -14 190 -18 61 -4 117 -12 125 -17 22 -14 400 -41 765
-53 142 -5 241 -12 258 -20 41 -17 1014 -17 1054 0 17 8 118 15 268 20 132 4
305 12 385 18 80 5 201 13 270 17 69 5 132 12 140 18 8 5 60 13 115 17 55 4
138 12 185 17 47 5 124 14 171 19 47 4 91 12 99 17 7 4 47 12 89 17 42 4 103
12 136 17 33 5 92 14 130 19 39 5 83 15 98 21 16 6 44 11 63 11 32 0 65 6 172
31 26 6 67 15 92 20 25 4 72 13 105 20 33 6 80 15 105 19 25 4 101 21 170 38
69 17 195 47 280 67 85 20 193 48 240 62 47 13 121 35 165 47 122 35 530 165
615 196 41 15 127 44 190 65 63 21 124 44 135 51 11 8 26 14 35 14 9 0 33 9
54 20 22 11 69 29 105 41 36 12 94 35 128 51 34 15 64 28 67 28 3 0 29 11 58
24 29 13 64 27 78 31 14 4 51 21 82 36 32 16 62 29 68 29 5 0 88 38 183 85 95
47 178 85 184 85 16 0 229 107 278 140 22 15 108 61 192 103 84 41 196 102
250 135 54 32 123 73 153 89 30 16 89 52 131 79 74 48 93 59 190 115 62 36
471 312 584 393 50 36 123 89 164 117 40 28 81 57 90 65 9 7 34 27 56 44 22
16 65 51 95 75 30 25 87 70 125 100 39 30 95 75 125 100 30 24 78 62 105 84
28 21 79 69 115 106 36 37 85 81 110 97 69 48 227 199 648 620 396 395 540
546 582 608 13 19 55 69 94 112 98 106 168 187 196 228 13 19 36 47 50 61 14
14 37 43 53 65 15 21 50 66 77 99 27 33 75 94 107 135 31 41 82 108 112 148
120 158 548 790 630 932 24 41 57 94 72 117 16 23 29 45 29 50 0 5 12 26 27
48 31 45 79 130 165 290 33 61 65 117 72 125 16 19 312 617 321 650 4 14 29
68 55 120 26 52 51 106 55 120 4 14 20 50 35 82 16 31 31 67 35 80 4 12 13 37
20 53 18 40 93 227 117 290 10 28 23 59 28 70 26 52 215 613 275 815 21 69 52
172 70 230 18 58 44 152 58 210 25 104 48 195 88 353 12 45 25 105 30 132 4
28 15 75 24 105 8 30 20 82 26 115 12 66 21 119 37 208 6 31 14 62 18 69 4 6
11 43 16 82 4 39 13 98 18 131 6 33 14 96 18 141 5 44 12 86 17 93 11 19 25
126 53 412 5 53 13 103 18 110 5 8 12 64 16 124 4 61 12 166 18 235 5 69 13
202 18 295 4 94 12 177 17 185 11 16 26 578 26 955 0 366 -15 889 -26 905 -5
8 -13 83 -18 165 -7 142 -18 302 -34 550 -5 61 -12 117 -18 125 -5 8 -13 60
-17 115 -4 55 -12 138 -17 185 -5 47 -14 124 -19 172 -6 48 -14 92 -18 99 -4
7 -11 46 -16 88 -4 42 -12 103 -17 136 -5 33 -14 92 -19 131 -5 40 -13 77 -17
83 -7 12 -12 43 -35 191 -14 90 -27 158 -39 205 -6 22 -15 67 -21 100 -6 33
-20 98 -32 145 -12 47 -25 108 -29 135 -8 52 -118 495 -143 575 -7 25 -21 74
-31 110 -48 179 -216 710 -248 780 -11 25 -39 105 -63 179 -24 73 -48 139 -53
145 -4 6 -21 49 -36 96 -15 47 -31 90 -35 95 -4 6 -13 28 -20 50 -7 22 -19 51
-26 65 -12 23 -39 88 -86 205 -10 28 -32 77 -48 110 -15 33 -31 71 -35 85 -5
14 -25 59 -45 100 -21 41 -41 86 -45 100 -10 34 -404 821 -420 840 -7 8 -32
53 -56 100 -24 47 -54 101 -67 120 -13 19 -30 51 -39 70 -9 19 -30 58 -48 85
-40 63 -153 250 -174 290 -9 17 -51 82 -94 146 -42 64 -77 119 -77 123 0 8
-218 330 -295 436 -30 41 -73 102 -96 135 -23 33 -67 93 -98 134 -31 40 -69
93 -86 116 -43 62 -85 116 -116 150 -28 31 -43 50 -115 152 -23 32 -49 65 -59
73 -9 8 -31 34 -48 59 l-32 46 -7 1895 c-6 1806 -11 2116 -33 2150 -5 8 -13
67 -17 130 -10 153 -23 263 -32 279 -4 6 -12 49 -17 94 -17 150 -45 323 -56
340 -3 4 -9 36 -14 70 -5 34 -13 82 -19 107 -6 25 -14 68 -19 95 -15 86 -108
442 -149 569 -22 66 -49 155 -62 196 -12 41 -26 80 -30 85 -4 6 -24 62 -45
125 -21 63 -42 120 -46 126 -5 6 -15 31 -23 55 -20 63 -67 171 -113 264 -22
44 -46 97 -52 117 -14 43 -56 126 -76 148 -7 8 -32 53 -55 100 -23 47 -70 131
-104 188 -33 56 -68 115 -76 129 -42 76 -205 307 -287 407 -8 10 -29 42 -45
70 -17 28 -48 70 -69 93 -22 24 -39 47 -39 51 0 13 -371 384 -417 419 -21 15
-61 48 -89 73 -77 68 -135 115 -179 144 -22 15 -42 31 -45 35 -6 10 -337 231
-346 231 -3 0 -29 15 -57 33 -157 101 -520 286 -697 356 -58 23 -127 53 -155
65 -85 40 -664 227 -795 257 -30 7 -86 20 -125 30 -87 23 -182 45 -260 59 -33
6 -80 16 -105 22 -44 11 -81 17 -226 36 -40 5 -77 13 -83 16 -6 4 -48 12 -94
18 -45 5 -116 14 -157 19 -41 5 -124 13 -185 17 -60 4 -117 12 -125 17 -32 21
-723 44 -765 25z m570 -3888 c172 -15 283 -29 297 -38 7 -4 37 -12 68 -17 108
-17 146 -25 235 -47 100 -25 414 -127 430 -140 6 -4 28 -13 50 -20 52 -17 229
-105 280 -140 22 -15 56 -35 75 -44 19 -9 55 -32 80 -51 25 -19 71 -53 103
-75 31 -23 57 -44 57 -48 0 -4 15 -16 33 -26 42 -25 280 -259 318 -313 17 -24
45 -58 63 -75 56 -56 208 -296 283 -448 74 -150 128 -281 158 -385 10 -33 28
-94 41 -135 13 -41 24 -85 24 -97 0 -21 7 -59 32 -163 32 -135 44 -237 57
-465 4 -82 13 -163 19 -180 9 -23 12 -857 10 -3493 l-3 -3463 -52 -50 -52 -49
-2525 0 -2526 0 -41 38 c-23 20 -48 51 -56 69 -18 44 -20 7027 -2 7083 7 19
16 89 20 155 19 266 41 451 59 485 5 10 10 30 10 44 0 14 4 45 10 68 5 24 16
79 25 123 50 241 165 578 262 760 142 268 211 361 418 568 153 154 235 227
304 273 196 129 364 198 697 283 23 6 63 11 90 12 27 0 58 4 69 9 24 11 428 5
580 -8z m-9075 -1373 c19 -7 89 -16 155 -20 113 -8 199 -17 340 -38 126 -18
422 -99 540 -148 151 -62 358 -171 478 -252 111 -75 161 -118 314 -273 101
-100 199 -205 218 -233 159 -226 231 -354 298 -530 50 -130 104 -318 127 -440
6 -33 16 -80 22 -105 49 -199 50 -241 54 -3434 l4 -3019 -49 -48 -48 -49
-2093 0 -2093 0 -54 54 -53 53 5 789 c3 434 8 1806 13 3049 4 1443 11 2265 17
2275 5 8 13 65 17 125 4 61 12 151 18 200 5 50 14 124 19 165 5 41 13 95 20
120 6 25 22 95 36 155 62 268 127 462 223 655 113 230 140 266 352 483 179
183 256 245 395 314 152 76 255 109 425 133 36 5 79 13 95 18 42 14 163 14
205 1z m12850 -12674 c73 -71 84 -97 93 -220 4 -60 11 -209 15 -330 5 -134 12
-231 20 -248 17 -40 17 -704 0 -744 -7 -16 -15 -112 -20 -233 -4 -113 -12
-254 -17 -315 -6 -60 -14 -162 -18 -225 -5 -63 -13 -121 -17 -129 -5 -8 -13
-51 -18 -95 -8 -79 -19 -170 -36 -291 -5 -33 -14 -80 -20 -105 -12 -51 -25
-116 -42 -210 -6 -36 -17 -90 -25 -120 -8 -30 -21 -82 -29 -115 -8 -33 -23
-94 -33 -135 -11 -41 -25 -100 -32 -130 -35 -155 -214 -696 -275 -835 -8 -16
-17 -41 -21 -55 -4 -14 -13 -34 -20 -45 -6 -11 -18 -38 -25 -60 -7 -22 -30
-74 -50 -115 -21 -41 -41 -86 -45 -100 -10 -36 -175 -369 -199 -405 -12 -16
-44 -73 -72 -125 -87 -162 -111 -202 -173 -290 -33 -47 -101 -146 -152 -220
-50 -74 -117 -168 -148 -209 -31 -40 -62 -83 -70 -95 -8 -11 -29 -37 -46 -56
-18 -19 -42 -51 -55 -70 -13 -19 -44 -58 -69 -87 -25 -28 -80 -91 -121 -139
-97 -113 -682 -698 -789 -789 -45 -38 -108 -92 -140 -120 -31 -27 -77 -65
-102 -83 -24 -17 -87 -66 -139 -107 -52 -41 -126 -96 -165 -122 -38 -25 -102
-70 -142 -100 -61 -46 -174 -118 -288 -183 -16 -10 -68 -41 -115 -70 -90 -56
-633 -331 -735 -373 -33 -13 -98 -40 -145 -60 -147 -62 -258 -102 -495 -179
-425 -139 -527 -168 -730 -208 -33 -7 -80 -18 -105 -25 -25 -8 -70 -18 -100
-25 -30 -6 -74 -15 -98 -21 -23 -5 -58 -9 -76 -9 -19 0 -47 -5 -63 -11 -47
-18 -137 -32 -359 -57 -44 -5 -87 -13 -95 -17 -20 -13 -329 -41 -589 -53 -96
-4 -188 -14 -203 -20 -40 -17 -1144 -17 -1184 0 -15 6 -98 15 -183 20 -248 12
-527 39 -549 52 -7 5 -47 12 -89 17 -155 17 -254 34 -352 57 -25 6 -71 16
-102 22 -119 21 -174 32 -213 41 -22 6 -58 14 -80 19 -254 57 -861 253 -1040
336 -48 22 -112 48 -200 81 -51 19 -553 271 -627 314 -31 19 -80 48 -109 64
-29 17 -65 37 -79 45 -14 9 -65 39 -113 68 -115 68 -288 184 -322 217 -16 14
-31 25 -35 25 -6 0 -159 110 -200 143 -8 7 -31 23 -50 37 -39 27 -105 81 -183
151 -29 25 -68 56 -87 69 -19 13 -62 51 -95 85 -33 34 -85 80 -115 102 -61 45
-590 574 -590 589 0 6 -29 41 -65 78 -36 37 -78 84 -92 105 -15 20 -48 60 -73
88 -98 114 -121 141 -143 174 -13 19 -31 43 -40 54 -31 38 -217 303 -264 378
-18 28 -56 83 -84 122 -60 84 -107 161 -164 271 -23 45 -51 94 -62 110 -24 34
-217 419 -228 455 -4 13 -18 47 -31 74 -12 28 -32 73 -42 100 -55 140 -105
264 -121 300 -30 68 -192 579 -219 695 -6 25 -18 75 -27 113 -9 37 -23 86 -31
110 -9 23 -20 67 -25 97 -19 106 -26 145 -37 190 -6 25 -16 72 -22 105 -6 33
-15 79 -20 103 -6 23 -10 58 -10 76 0 19 -5 47 -11 63 -6 15 -16 64 -21 108
-5 44 -14 114 -19 155 -5 41 -12 118 -17 170 -4 52 -11 102 -17 110 -11 18
-24 214 -34 540 -4 135 -12 250 -19 270 -17 49 -16 458 0 497 8 18 15 117 20
268 9 298 21 462 36 498 7 16 12 41 12 57 0 33 46 92 95 122 29 17 287 18
7877 15 l7847 -2 41 -40z"/>
</g>
</svg>
