<?xml version="1.0" standalone="no"?>
<!DOCTYPE svg PUBLIC "-//W3C//DTD SVG 20010904//EN"
 "http://www.w3.org/TR/2001/REC-SVG-20010904/DTD/svg10.dtd">
<svg version="1.0" xmlns="http://www.w3.org/2000/svg"
 width="250.000000pt" height="49.8.000000pt" viewBox="0 0 2500.000000 498.000000"
 preserveAspectRatio="xMidYMid meet">
 
 
<g transform="translate(0.000000,498.000000) scale(0.100000,-0.100000)"
fill="#4285F4" stroke="none">
<path d="M22440 4620 c-157 -27 -292 -136 -341 -274 -19 -55 -19 -90 -17
-1979 l3 -1922 32 -65 c52 -105 138 -181 263 -236 43 -18 80 -19 1037 -22 982
-2 993 -2 1055 18 75 25 158 79 197 129 168 213 89 494 -169 603 l-55 23 -745
5 -745 5 -5 1710 -5 1710 -29 58 c-61 120 -192 215 -326 236 -72 12 -85 12
-150 1z"/>
<path d="M18777 4554 c-145 -35 -262 -126 -324 -252 l-38 -76 -3 -1850 c-2
-1238 1 -1867 8 -1899 34 -161 182 -308 350 -346 60 -14 1294 -14 1415 -1 288
33 557 127 770 268 87 57 278 246 334 329 96 144 162 306 196 485 23 123 20
339 -6 452 -71 302 -265 524 -614 700 -60 31 -116 56 -122 56 -22 0 -14 28 9
35 36 12 199 113 275 172 182 139 310 344 343 549 36 219 -11 502 -117 707
-202 390 -588 630 -1093 676 -181 17 -1310 13 -1383 -5z m1428 -789 c157 -41
251 -141 290 -307 69 -293 -87 -557 -369 -623 -48 -12 -146 -15 -453 -15
l-393 0 0 480 0 480 433 0 c357 0 443 -3 492 -15z m-12 -1761 c227 -50 381
-203 422 -419 40 -207 -6 -388 -129 -510 -66 -66 -137 -105 -251 -138 -65 -19
-102 -21 -512 -25 l-443 -3 0 555 0 556 421 0 c348 0 432 -3 492 -16z"/>
</g> 

<g transform="translate(0.000000,498.000000) scale(0.100000,-0.100000)"
fill="#000" stroke="none">
<path d="M2301 4539 c-713 -75 -1351 -518 -1674 -1164 -152 -304 -219 -601
-220 -980 -1 -222 9 -323 49 -517 66 -317 222 -640 428 -887 144 -172 366
-364 551 -476 496 -300 1146 -382 1779 -224 306 76 644 248 879 444 l67 57
-112 121 c-62 67 -192 209 -288 315 -96 106 -179 191 -185 188 -6 -2 -46 -29
-90 -61 -92 -66 -264 -152 -379 -190 -346 -115 -773 -109 -1082 15 -240 96
-449 276 -578 497 -121 209 -184 490 -173 773 15 369 125 637 357 870 220 221
465 330 809 360 128 11 327 1 441 -21 228 -45 453 -141 633 -271 l68 -49 48
53 c27 29 157 172 290 318 l241 265 -23 18 c-476 385 -974 560 -1582 556 -93
-1 -208 -6 -254 -10z"/>
<path d="M5737 2402 c-472 -1181 -860 -2157 -864 -2170 l-5 -22 459 0 459 0
58 147 c31 82 90 231 129 333 l72 185 985 0 984 0 130 -332 129 -333 460 0
c433 0 459 1 454 18 -2 9 -277 699 -609 1532 -333 833 -719 1802 -859 2152
l-254 638 -435 0 -435 0 -858 -2148z m1642 155 c171 -440 311 -801 311 -803 0
-2 -290 -4 -645 -4 -355 0 -645 2 -645 5 0 3 142 362 316 798 174 436 321 803
326 817 10 24 10 24 18 5 4 -11 148 -379 319 -818z"/>
<path d="M9850 2380 l0 -2170 430 0 430 0 0 900 0 900 805 0 805 0 0 405 0
405 -805 0 -805 0 0 460 0 460 1093 2 1092 3 0 400 0 400 -1522 3 -1523 2 0
-2170z"/>
<path d="M13510 2380 l0 -2170 1588 2 1587 3 3 402 2 403 -1157 2 -1158 3 0
490 0 490 868 3 867 2 0 405 0 405 -870 0 -870 0 0 460 0 460 1160 0 1160 0 0
405 0 405 -1590 0 -1590 0 0 -2170z"/>
</g>
</svg>
