<?xml version="1.0" standalone="no"?>
<!DOCTYPE svg PUBLIC "-//W3C//DTD SVG 20010904//EN"
 "http://www.w3.org/TR/2001/REC-SVG-20010904/DTD/svg10.dtd">
<svg version="1.0" xmlns="http://www.w3.org/2000/svg"
 width="3264.000000pt" height="735.000000pt" viewBox="0 0 3264.000000 735.000000"
 preserveAspectRatio="xMidYMid meet">
 
<!-- ICON -->
<g transform="translate(0.000000,735.000000) scale(0.100000,-0.100000)"
fill="#4285F4" stroke="none">
<path d="M3832 7126 c-40 -8 -105 -24 -145 -36 -234 -71 -464 -240 -626 -460
-34 -47 -69 -88 -76 -93 -10 -5 -37 15 -87 66 -82 83 -146 122 -269 165 -149
52 -245 67 -439 66 -192 0 -288 -13 -475 -65 -210 -58 -432 -187 -539 -312
-96 -112 -192 -304 -230 -457 -40 -165 -46 -250 -46 -718 l0 -452 -77 -128
c-213 -353 -347 -745 -408 -1192 -25 -182 -30 -573 -11 -760 89 -843 519
-1561 1210 -2021 364 -242 771 -384 1247 -435 186 -20 570 -14 748 11 514 72
958 256 1336 555 127 100 381 362 481 495 391 522 572 1120 551 1820 -7 215
-16 312 -48 500 -79 467 -263 895 -548 1275 l-86 115 -6 465 c-6 489 -9 523
-59 709 -136 503 -446 780 -977 876 -125 23 -331 28 -421 11z m364 -826 c218
-56 367 -202 431 -425 16 -54 18 -136 21 -858 2 -596 0 -803 -9 -813 -17 -21
-1101 -21 -1118 0 -9 11 -11 210 -8 813 4 858 4 854 58 998 60 161 182 274
331 305 59 12 206 2 294 -20z m-1896 -296 c138 -41 264 -145 320 -266 59 -126
60 -145 60 -867 0 -498 -3 -660 -12 -669 -18 -18 -911 -17 -926 1 -8 9 -8 224
-3 722 8 686 9 713 30 783 49 167 126 262 250 309 46 17 204 10 281 -13z
m2584 -2686 c21 -34 29 -230 16 -393 -35 -449 -175 -775 -455 -1064 -280 -289
-603 -443 -1034 -492 -157 -18 -478 -7 -616 21 -435 87 -798 327 -1050 695
-140 204 -238 492 -266 781 -14 146 -7 437 11 459 11 13 201 15 1696 15 l1684
0 14 -22z"/>
</g>
<!-- ICON -->

<!-- BL -->
<g transform="translate(0.000000,735.000000) scale(0.100000,-0.100000)"
fill="#4285F4" stroke="none">
<path d="M29460 5939 c-132 -25 -274 -139 -322 -256 l-23 -58 -3 -1900 c-2
-1295 1 -1922 8 -1969 14 -91 51 -164 120 -234 59 -60 152 -113 231 -131 60
-14 1988 -14 2048 0 119 27 228 115 284 229 29 58 32 73 32 155 0 77 -4 99
-28 149 -47 101 -126 174 -236 218 l-56 23 -755 5 -755 5 -5 1726 -5 1725 -38
76 c-90 184 -288 278 -497 237z"/>
<path d="M25737 5874 c-182 -44 -325 -186 -357 -355 -13 -68 -13 -3682 -1
-3761 29 -173 186 -331 367 -368 36 -8 274 -10 756 -7 763 3 748 3 978 63 414
110 754 376 915 716 92 197 120 321 120 543 0 231 -41 382 -150 545 -110 164
-276 299 -511 412 -68 33 -124 63 -124 66 0 4 28 22 63 41 112 60 258 162 329
230 123 115 206 254 249 416 25 94 31 303 11 421 -72 432 -347 770 -762 937
-117 47 -312 94 -444 106 -173 17 -1366 13 -1439 -5z m1419 -783 c179 -34 295
-139 339 -306 20 -78 20 -236 -1 -306 -29 -99 -56 -143 -128 -214 -59 -59 -85
-76 -156 -105 l-85 -35 -429 -3 c-344 -2 -431 0 -437 10 -14 22 -11 942 3 956
15 15 818 17 894 3z m22 -1796 c227 -47 367 -170 432 -380 29 -93 32 -262 6
-350 -34 -117 -107 -218 -204 -284 -49 -34 -179 -78 -267 -91 -52 -7 -222 -10
-485 -8 l-405 3 -3 540 c-1 297 0 550 3 563 l5 22 425 0 c334 0 438 -3 493
-15z"/>
</g>
<!-- BL -->

<!-- CAFE -->
<g transform="translate(0.000000,735.000000) scale(0.100000,-0.100000)"
fill="#000000" stroke="none">
<path d="M9045 5870 c-535 -37 -986 -233 -1365 -597 -360 -345 -570 -751 -647
-1253 -24 -159 -24 -518 1 -685 35 -242 92 -434 185 -630 107 -224 217 -380
401 -569 191 -196 361 -321 593 -436 464 -230 1034 -289 1597 -164 334 74 689
245 948 456 39 33 72 64 72 69 0 6 -116 137 -258 292 -142 155 -272 297 -288
316 l-30 34 -95 -66 c-307 -212 -683 -310 -1068 -277 -285 24 -500 99 -695
244 -301 222 -466 544 -495 962 -30 431 93 796 360 1063 293 294 702 413 1209
350 231 -28 474 -123 688 -267 l95 -64 22 24 c156 165 551 604 553 614 7 27
-250 211 -428 306 -384 207 -885 309 -1355 278z"/>
<path d="M13327 5873 c-8 -13 -139 -337 -470 -1163 -431 -1075 -828 -2062
-1083 -2698 -118 -293 -214 -535 -214 -537 0 -3 211 -5 469 -5 l469 0 117 298
c65 163 126 316 136 340 l18 42 999 0 1000 0 86 -218 c47 -119 104 -266 128
-327 24 -60 47 -116 51 -122 6 -10 111 -13 467 -13 252 0 461 4 464 8 3 5
-139 368 -316 808 -735 1833 -1041 2596 -1230 3069 -110 275 -204 506 -210
513 -8 9 -109 12 -444 12 -238 0 -435 -3 -437 -7z m646 -1635 c97 -249 203
-523 237 -608 122 -311 230 -589 230 -594 0 -4 -297 -6 -661 -6 -525 0 -660 3
-656 13 5 11 478 1187 603 1499 32 81 62 148 65 148 3 0 85 -204 182 -452z"/>
<path d="M16647 5873 c-4 -3 -7 -996 -7 -2205 l0 -2198 440 0 440 0 2 913 3
912 818 3 817 2 0 410 0 410 -820 0 -820 0 0 465 0 465 1113 2 1112 3 0 410 0
410 -1546 3 c-850 1 -1549 -1 -1552 -5z"/>
<path d="M21252 5873 l-882 -3 2 -2198 3 -2197 1618 -3 1617 -2 0 410 0 410
-1175 0 -1175 0 0 505 0 505 885 0 885 0 -2 408 -3 407 -882 3 -883 2 0 465 0
465 1178 2 1177 3 0 410 0 410 -740 0 c-407 0 -1137 -1 -1623 -2z"/>
</g>
<!-- CAFE -->
</svg>
