<svg xmlns="http://www.w3.org/2000/svg" width="1024" height="1024" viewBox="0 0 1024 1024" version="1.1"><path d="" stroke="none" fill="#00ffff" fill-rule="evenodd"/><path d="M 566.667 350.667 C 566.300 351.033, 566 353.297, 566 355.698 C 566 360.337, 566.121 360.448, 572.310 361.479 C 577.321 362.313, 582.919 367.456, 586.274 374.307 C 588.793 379.452, 594.496 397.177, 595.637 403.409 C 596.508 408.163, 597.929 411.162, 598.998 410.501 C 599.549 410.161, 600 410.359, 600 410.941 C 600 411.523, 599.438 412.007, 598.750 412.015 C 597.777 412.027, 597.784 412.211, 598.784 412.845 C 599.490 413.293, 599.832 414.299, 599.544 415.080 C 598.678 417.432, 600.318 418.853, 603.253 418.292 C 605.987 417.769, 606 417.727, 606 409.450 L 606 401.133 603.250 400.816 C 600.677 400.520, 600.510 400.210, 600.652 396 C 600.736 393.525, 601.191 389.700, 601.664 387.500 C 602.391 384.117, 602.955 383.450, 605.321 383.178 C 606.859 383.001, 608.301 382.326, 608.524 381.678 C 608.747 381.030, 609.058 373.637, 609.215 365.249 L 609.500 349.997 588.417 349.999 C 576.821 349.999, 567.033 350.300, 566.667 350.667 M 429.100 576.250 C 429.040 577.300, 428.200 578, 427 578 C 425.900 578, 425 578.450, 425 579 C 425 579.550, 424.311 580, 423.469 580 C 422.626 580, 421.678 580.675, 421.362 581.500 C 421.045 582.325, 420.024 583, 419.093 583 C 416.924 583, 415 584.924, 415 587.092 C 415 588.103, 413.894 589.060, 412.250 589.473 C 410.738 589.852, 408.773 590.913, 407.884 591.831 C 406.995 592.749, 405.337 594.141, 404.199 594.924 C 403.061 595.707, 401.890 597.302, 401.598 598.467 C 401.107 600.424, 395.009 604, 392.164 604 C 391.524 604, 391 604.675, 391 605.500 C 391 606.530, 389.967 607, 387.699 607 C 384.253 607, 379.021 608.956, 379.008 610.250 C 379.004 610.663, 378.148 611, 377.107 611 C 375.140 611, 373.577 613.506, 374.556 615.090 C 374.865 615.591, 375.879 616.003, 376.809 616.007 C 377.975 616.011, 377.592 616.612, 375.577 617.940 C 373.969 619, 372.270 620.553, 371.801 621.392 C 371.331 622.231, 370.284 622.662, 369.474 622.351 C 368.195 621.861, 368 625.846, 368 652.425 C 368 687.064, 367.685 688.980, 361.568 691.536 C 359.641 692.341, 355.405 693, 352.155 693 C 345.320 693, 343.708 694.251, 344.182 699.185 L 344.500 702.500 385.939 702.761 C 412.889 702.931, 427.731 702.669, 428.389 702.011 C 429.070 701.330, 429.063 701, 428.367 701 C 427.798 701, 427.333 700.306, 427.333 699.457 C 427.333 698.582, 427.911 698.135, 428.667 698.426 C 429.400 698.707, 430 698.299, 430 697.518 C 430 696.738, 430.788 695.601, 431.750 694.992 C 433.003 694.198, 433.145 693.735, 432.250 693.359 C 431.273 692.948, 430.978 680.477, 430.900 636.167 C 430.845 605, 430.440 578.375, 430 577 C 429.466 575.333, 429.166 575.083, 429.100 576.250" stroke="none" fill="#8eec30" fill-rule="evenodd"/><path d="M 759.801 350.734 L 765.102 351.108 764.895 357.516 C 764.781 361.041, 764.300 363.686, 763.827 363.393 C 763.354 363.101, 763.223 362.448, 763.536 361.942 C 763.848 361.437, 763.441 361.277, 762.630 361.588 C 761.819 361.900, 760.109 361.639, 758.828 361.010 C 756.591 359.911, 756.597 359.944, 758.985 361.864 C 760.352 362.964, 761.639 363.694, 761.846 363.487 C 762.053 363.280, 763.204 364.323, 764.404 365.805 C 771.608 374.704, 772.532 379.143, 772.350 404 C 772.072 441.887, 769.223 456.340, 740.504 565.500 C 733.703 591.350, 727.182 616.325, 726.012 621 C 722.288 635.886, 721.881 637.215, 721.242 636.575 C 720.897 636.230, 720.474 635.023, 720.301 633.892 C 720.129 632.760, 717.100 620.734, 713.570 607.167 C 710.041 593.600, 701.889 561.350, 695.456 535.500 C 689.023 509.650, 683.531 488.275, 683.252 488 C 682.973 487.725, 682.952 488.982, 683.206 490.793 C 683.526 493.087, 683.302 493.946, 682.466 493.625 C 681.764 493.356, 680.729 494.792, 679.973 497.082 C 678.873 500.416, 678.257 501, 675.840 501 C 674.278 501, 673 501.450, 673 502 C 673 502.550, 672.130 503, 671.067 503 C 669.049 503, 667.521 505.989, 667.744 509.500 C 667.852 511.205, 667.794 511.233, 667.351 509.692 C 666.651 507.259, 662.749 507.874, 662.041 510.529 C 661.743 511.645, 660.209 514.233, 658.631 516.279 C 656.544 518.986, 655.009 520, 652.996 520 C 648.237 520, 642 524.214, 642 527.429 C 642 528.366, 641.139 529, 639.867 529 C 638.694 529, 636.941 529.915, 635.970 531.034 C 635 532.153, 633.624 532.941, 632.912 532.784 C 632.201 532.628, 631.447 533.288, 631.236 534.250 C 630.962 535.503, 631.513 536.033, 633.177 536.116 C 634.871 536.201, 635.026 536.356, 633.750 536.689 C 632.788 536.941, 632 537.383, 632 537.673 C 632 537.962, 634.451 547.267, 637.446 558.349 C 643.571 581.008, 660.289 642.958, 668.657 674 C 675.820 700.574, 676.374 702.291, 677.952 702.817 C 678.784 703.095, 679.001 702.810, 678.533 702.053 C 677.609 700.558, 680.406 697.875, 684.750 696.092 C 686.538 695.358, 688 694.137, 688 693.379 C 688 692.620, 688.623 692, 689.383 692 C 690.838 692, 691.963 689.065, 691.986 685.210 C 691.999 683.136, 694.586 678.626, 697.692 675.264 C 698.348 674.554, 700.213 673.707, 701.838 673.382 C 705.048 672.740, 706 670.345, 706 662.910 C 706 659.942, 706.511 658.805, 708.250 657.900 C 711.460 656.229, 715.109 651.893, 716.579 648 C 716.891 647.175, 717.563 645.719, 718.073 644.764 C 718.583 643.809, 719 642.319, 719 641.455 C 719 640.590, 719.403 640.131, 719.895 640.435 C 720.388 640.740, 721.048 640.316, 721.364 639.494 C 721.679 638.672, 722.595 638, 723.399 638 C 724.203 638, 725.005 636.992, 725.180 635.760 C 725.360 634.499, 726.343 633.360, 727.429 633.152 C 730.532 632.560, 732 630.404, 732 626.440 L 732 622.737 736.198 623.300 C 738.507 623.609, 739.954 623.556, 739.415 623.181 C 738.227 622.357, 738.228 620.978, 739.420 619.095 C 740.084 618.047, 739.953 617.905, 738.905 618.537 C 737.733 619.243, 737.715 619.118, 738.798 617.782 C 739.887 616.437, 739.787 615.965, 738.174 614.834 C 736.636 613.757, 736.505 613.252, 737.519 612.304 C 738.217 611.653, 739.023 611.357, 739.312 611.646 C 739.601 611.935, 740.395 611.130, 741.077 609.856 C 741.758 608.583, 742.955 606.902, 743.736 606.122 C 744.516 605.341, 744.943 603.891, 744.684 602.899 C 744.424 601.907, 744.607 600.962, 745.089 600.798 C 745.571 600.634, 746.115 599.130, 746.297 597.455 C 746.480 595.780, 746.894 593.980, 747.218 593.455 C 747.830 592.463, 752.914 572.976, 767.423 516 C 779.899 467.009, 786.453 442.213, 787.097 441.570 C 787.409 441.257, 791.370 454.614, 795.898 471.251 C 800.426 487.888, 804.394 502.175, 804.716 503 C 805.037 503.825, 805.463 505.400, 805.662 506.500 C 805.861 507.600, 806.311 509.175, 806.663 510 C 807.014 510.825, 807.424 512.098, 807.574 512.828 C 807.724 513.559, 808.175 514.909, 808.577 515.828 C 808.979 516.748, 809.493 518.617, 809.719 519.982 C 810.276 523.340, 811.246 524.119, 810.987 521 C 810.872 519.625, 810.885 518.163, 811.014 517.750 C 811.589 515.920, 811.758 514.819, 811.875 512.128 C 811.986 509.568, 812.446 509.184, 816.099 508.600 C 820.734 507.859, 823 506.070, 823 503.153 C 823 500.077, 824.070 498, 825.655 498 C 828.264 498, 832.032 492.976, 831.378 490.369 C 830.937 488.612, 831.199 488, 832.392 488 C 833.553 488, 834 487.059, 834 484.616 L 834 481.233 840.674 480.518 C 849.415 479.582, 850 479.296, 850 475.954 C 850 473.364, 850.384 473.065, 854.509 472.446 C 856.989 472.075, 860.042 471.966, 861.293 472.205 L 863.568 472.640 860.688 460.570 C 859.104 453.932, 853.368 431.135, 847.940 409.912 C 835.703 362.060, 835.667 362.659, 850.858 361.157 L 857.500 360.500 857.500 355.500 L 857.500 350.500 806 350.430 C 777.675 350.392, 756.885 350.529, 759.801 350.734 M 949.307 351.645 C 949.065 352.274, 949.009 354.524, 949.183 356.645 L 949.500 360.500 956.729 361.146 C 965.026 361.887, 970.039 364.327, 971.439 368.307 C 972.077 370.121, 971.960 373.549, 971.081 378.754 C 969.283 389.405, 968.723 394.020, 968.832 397.286 C 968.884 398.836, 968.498 399.808, 967.963 399.477 C 967.433 399.150, 967 400.034, 967 401.441 C 967 402.848, 966.502 404, 965.893 404 C 965.284 404, 965.024 404.620, 965.315 405.378 C 965.606 406.136, 965.339 407.261, 964.722 407.878 C 963.928 408.672, 963.919 409, 964.693 409 C 965.294 409, 966.056 408.296, 966.386 407.437 C 966.716 406.577, 967.434 406.150, 967.981 406.489 C 968.556 406.844, 968.725 406.448, 968.382 405.552 C 968.054 404.698, 968.284 404, 968.893 404 C 969.502 404, 970 403.367, 970 402.593 C 970 401.598, 971.588 401.085, 975.407 400.843 C 978.381 400.654, 980.660 400.746, 980.473 401.048 C 980.285 401.349, 980.545 402.249, 981.051 403.048 C 981.738 404.134, 982.013 403.745, 982.142 401.500 C 982.237 399.850, 982.294 397.938, 982.269 397.250 C 982.243 396.563, 982.649 396, 983.170 396 C 983.691 396, 983.840 395.550, 983.500 395 C 983.160 394.450, 983.233 393.438, 983.663 392.750 C 984.092 392.063, 984.536 391.050, 984.649 390.500 C 985.894 384.443, 989.296 373.900, 991.201 370.198 C 994.215 364.341, 997.915 362.169, 1005.513 361.794 L 1011.493 361.500 1011.820 356.346 C 1012.134 351.392, 1012.037 351.169, 1009.323 350.611 C 1003.861 349.488, 949.778 350.420, 949.307 351.645 M 532.448 640.500 C 532.077 642.975, 531.374 645, 530.886 645 C 530.399 645, 530 645.904, 530 647.010 C 530 648.115, 529.100 649.790, 528 650.732 C 526.755 651.798, 526 653.682, 526 655.722 C 526 657.525, 525.550 659, 525 659 C 524.450 659, 524 661.025, 524 663.500 C 524 666.833, 523.611 668, 522.500 668 C 521.667 668, 521 667.111, 521 666 C 521 664.900, 520.438 664, 519.750 664 C 519.063 664, 518.500 665.125, 518.500 666.500 C 518.500 667.875, 518.728 669, 519.007 669 C 519.286 669, 519.353 671.025, 519.157 673.500 C 518.916 676.519, 518.338 678, 517.399 678 C 516.461 678, 516 679.178, 516 681.571 C 516 683.536, 515.325 685.818, 514.500 686.643 C 513.675 687.468, 513 689.487, 513 691.130 C 513 692.868, 512.581 693.859, 512 693.500 C 511.390 693.123, 511 694.629, 511 697.358 C 511 700.003, 510.489 702.040, 509.750 702.338 C 509.063 702.615, 514.237 702.878, 521.250 702.921 L 534 703 534 669.500 C 534 651.075, 533.803 636, 533.561 636 C 533.320 636, 532.819 638.025, 532.448 640.500" stroke="none" fill="#2ece8f" fill-rule="evenodd"/><path d="M 344.667 351.667 C 343.774 352.560, 343.844 358.213, 344.765 359.630 C 345.169 360.251, 348.748 360.940, 352.718 361.161 C 360.561 361.596, 364.455 363.552, 366.738 368.200 C 367.465 369.681, 368.115 376.137, 368.313 383.853 C 368.499 391.075, 368.955 397.288, 369.326 397.659 C 369.697 398.030, 370 397.808, 370 397.167 C 370 396.525, 371.125 396, 372.500 396 C 374.500 396, 375 395.500, 375 393.500 C 375 391.500, 374.500 391, 372.500 391 C 370.250 391, 370 390.600, 370 387 C 370 383.222, 370.167 383, 373 383 L 376 383 376 374.111 L 376 365.223 379.500 364.566 C 382.882 363.931, 383 363.759, 383 359.423 C 383 356.358, 382.525 354.755, 381.500 354.362 C 379.300 353.517, 379.671 352.202, 382.250 351.706 C 383.488 351.467, 375.688 351.211, 364.917 351.136 C 354.146 351.061, 345.033 351.300, 344.667 351.667 M 204.648 359.685 C 204.292 360.042, 204 361.383, 204 362.667 C 204 364.074, 203.405 365, 202.500 365 C 201.605 365, 201 365.920, 201 367.279 C 201 368.533, 200.100 370.207, 199 371 C 197.441 372.124, 197 373.589, 197 377.648 C 197 381.917, 196.578 383.187, 194.659 384.696 C 192.059 386.741, 189.446 391, 190.791 391 C 191.265 391, 191.679 393.137, 191.713 395.750 C 191.746 398.363, 192.055 401.850, 192.399 403.500 C 194.650 414.297, 195.405 424.077, 195.447 443 C 195.502 467.665, 194.816 471.415, 187.452 486.681 C 182.259 497.445, 174.709 506.183, 166.829 510.548 L 161.500 513.500 138.750 513.818 L 116 514.135 116 496.193 C 116 476.254, 115.513 471.866, 113.390 472.681 C 112.625 472.974, 112 474.066, 112 475.107 C 112 476.148, 111.386 477, 110.635 477 C 109.884 477, 108.126 477.900, 106.727 479 C 105.329 480.100, 102.793 481, 101.092 481 C 99.131 481, 98 481.504, 98 482.379 C 98 483.137, 96.748 484.276, 95.218 484.910 C 93.687 485.544, 91.142 487.173, 89.562 488.531 C 87.240 490.527, 85.604 491, 81.033 491 C 76.759 491, 74.852 491.489, 73.230 493 C 72.050 494.100, 69.731 495, 68.077 495 C 66.094 495, 64.706 495.681, 64 497 C 63.155 498.579, 61.906 499, 58.073 499 C 53.726 499, 53.151 499.262, 52.589 501.502 C 52.244 502.878, 51.992 539.833, 52.030 583.625 C 52.086 647.882, 52.343 662.914, 53.359 661.524 C 54.319 660.210, 56.676 659.674, 63.309 659.260 C 69.701 658.862, 72 658.359, 72 657.359 C 72 656.438, 73.301 656, 76.035 656 C 80.350 656, 85 653.630, 85 651.431 C 85 650.478, 83.049 649.990, 78.250 649.742 C 74.537 649.549, 77.463 649.304, 84.750 649.196 L 98 649 98 645.500 L 98 642 104.917 642 C 109.513 642, 112.003 641.581, 112.341 640.750 C 112.739 639.768, 113.047 639.783, 113.774 640.817 C 115.533 643.317, 116 630.113, 116 577.853 L 116 526 141.032 526 C 168.674 526, 170.582 526.336, 176.875 532.301 C 186.662 541.578, 194.527 561.472, 196.524 582 C 197.389 590.882, 197.633 591.510, 199.497 589.646 C 200.324 588.819, 201 587.211, 201 586.071 C 201 584.897, 201.649 584, 202.500 584 C 203.325 584, 204.007 584.788, 204.015 585.750 C 204.028 587.151, 204.207 587.221, 204.914 586.104 C 205.400 585.337, 206.519 584.985, 207.399 585.323 C 208.533 585.758, 209 585.363, 209 583.969 C 209 582.886, 209.450 582, 210 582 C 210.550 582, 211 581.100, 211 580 C 211 578.889, 211.667 578, 212.500 578 C 213.325 578, 214 577.580, 214 577.067 C 214 576.554, 214.900 575.849, 216 575.500 C 217.100 575.151, 218 574.221, 218 573.433 C 218 572.645, 218.910 572, 220.021 572 C 221.168 572, 222.502 570.992, 223.104 569.671 C 224.118 567.447, 228.884 565, 232.204 565 C 233.064 565, 234.002 564.100, 234.290 563 C 234.603 561.803, 235.654 561, 236.906 561 C 238.101 561, 239 560.356, 239 559.500 C 239 558.675, 239.450 558, 240 558 C 240.550 558, 241 557.325, 241 556.500 C 241 555.675, 241.420 555, 241.933 555 C 242.446 555, 243.165 554.056, 243.531 552.902 C 244.023 551.353, 244.811 550.922, 246.547 551.254 C 248.612 551.648, 248.387 551.162, 244.699 547.252 C 233.121 534.979, 216.068 525.804, 195.333 520.692 L 182.225 517.460 193.862 513.668 C 228.776 502.291, 246.463 486.432, 253.716 460 C 256.473 449.955, 256.148 419.485, 253.167 408.500 C 249.099 393.509, 241.143 381.134, 229.592 371.828 C 220.725 364.684, 206.550 357.784, 204.648 359.685" stroke="none" fill="#fa9838" fill-rule="evenodd"/><path d="M 31.250 351.143 C 29.704 352.697, 29.602 358.636, 31.105 359.565 C 31.712 359.940, 34.438 360.422, 37.162 360.634 C 39.886 360.847, 43.680 361.675, 45.593 362.475 C 52.134 365.207, 51.987 363.535, 52.116 436.718 C 52.180 472.898, 52.438 501.712, 52.689 500.750 C 53.046 499.384, 54.220 499, 58.038 499 C 61.906 499, 63.154 498.582, 64 497 C 64.706 495.681, 66.094 495, 68.077 495 C 69.731 495, 72.050 494.100, 73.230 493 C 74.852 491.489, 76.759 491, 81.033 491 C 85.604 491, 87.240 490.527, 89.562 488.531 C 91.142 487.173, 93.687 485.544, 95.218 484.910 C 96.748 484.276, 98 483.137, 98 482.379 C 98 481.504, 99.131 481, 101.092 481 C 102.793 481, 105.329 480.100, 106.727 479 C 108.126 477.900, 109.884 477, 110.635 477 C 111.386 477, 112 476.148, 112 475.107 C 112 472.305, 114.782 471.629, 115.302 474.305 C 115.536 475.512, 115.789 450.512, 115.864 418.750 L 116 361 133.750 361.012 C 153.855 361.025, 158.531 361.888, 168.387 367.400 C 178.337 372.964, 185.913 382.260, 189.047 392.750 C 190.540 397.747, 191.419 398.159, 191.710 393.998 C 191.825 392.349, 191.472 391, 190.925 391 C 189.455 391, 191.907 386.861, 194.659 384.696 C 196.578 383.187, 197 381.917, 197 377.648 C 197 373.589, 197.441 372.124, 199 371 C 200.100 370.207, 201 368.533, 201 367.279 C 201 365.920, 201.605 365, 202.500 365 C 203.325 365, 204 364.137, 204 363.082 C 204 362.027, 204.247 360.520, 204.548 359.735 C 205.209 358.012, 194.558 354.800, 180 352.332 C 167.210 350.164, 33.287 349.093, 31.250 351.143" stroke="none" fill="#fa2450" fill-rule="evenodd"/><path d="M 382.250 351.706 C 379.671 352.202, 379.300 353.517, 381.500 354.362 C 382.525 354.755, 383 356.358, 383 359.423 C 383 363.759, 382.882 363.931, 379.500 364.566 L 376 365.223 376 374.111 L 376 383 373 383 C 370.167 383, 370 383.222, 370 387 C 370 390.600, 370.250 391, 372.500 391 C 374.500 391, 375 391.500, 375 393.500 C 375 395.500, 374.500 396, 372.500 396 C 371.125 396, 369.993 396.563, 369.985 397.250 C 369.974 398.083, 369.646 398, 369 397 C 368.371 396.027, 368.025 435.227, 368.015 508.643 C 368.002 607.399, 368.187 621.858, 369.474 622.351 C 370.284 622.662, 371.331 622.231, 371.801 621.392 C 372.270 620.553, 373.969 619, 375.577 617.940 C 377.592 616.612, 377.975 616.011, 376.809 616.007 C 375.879 616.003, 374.865 615.591, 374.556 615.090 C 373.577 613.506, 375.140 611, 377.107 611 C 378.148 611, 379.004 610.663, 379.008 610.250 C 379.021 608.956, 384.253 607, 387.699 607 C 389.967 607, 391 606.530, 391 605.500 C 391 604.675, 391.524 604, 392.164 604 C 395.009 604, 401.107 600.424, 401.598 598.467 C 401.890 597.302, 403.061 595.707, 404.199 594.924 C 405.337 594.141, 406.995 592.749, 407.884 591.831 C 408.773 590.913, 410.738 589.852, 412.250 589.473 C 413.894 589.060, 415 588.103, 415 587.092 C 415 584.924, 416.924 583, 419.093 583 C 420.024 583, 421.045 582.325, 421.362 581.500 C 421.678 580.675, 422.626 580, 423.469 580 C 424.311 580, 425 579.550, 425 579 C 425 578.450, 425.867 578, 426.927 578 C 427.986 578, 429.059 577.212, 429.311 576.250 C 429.650 574.951, 429.859 575.144, 430.120 577 C 430.314 578.375, 430.704 532.475, 430.986 475 C 431.460 378.649, 431.634 370.255, 433.220 367.358 C 435.229 363.687, 438.923 362.148, 447.750 361.307 L 454 360.711 454 355.855 L 454 351 419.250 351.136 C 400.137 351.211, 383.488 351.467, 382.250 351.706 M 243.500 553 C 243.151 554.100, 242.446 555, 241.933 555 C 241.420 555, 241 555.675, 241 556.500 C 241 557.325, 240.550 558, 240 558 C 239.450 558, 239 558.675, 239 559.500 C 239 560.356, 238.101 561, 236.906 561 C 235.654 561, 234.603 561.803, 234.290 563 C 234.002 564.100, 233.064 565, 232.204 565 C 228.884 565, 224.118 567.447, 223.104 569.671 C 222.502 570.992, 221.168 572, 220.021 572 C 218.910 572, 218 572.645, 218 573.433 C 218 574.221, 217.100 575.151, 216 575.500 C 214.900 575.849, 214 576.554, 214 577.067 C 214 577.580, 213.325 578, 212.500 578 C 211.667 578, 211 578.889, 211 580 C 211 581.100, 210.550 582, 210 582 C 209.450 582, 209 582.886, 209 583.969 C 209 585.363, 208.533 585.758, 207.399 585.323 C 206.519 584.985, 205.400 585.337, 204.914 586.104 C 204.207 587.221, 204.028 587.151, 204.015 585.750 C 204.007 584.788, 203.325 584, 202.500 584 C 201.580 584, 201 584.935, 201 586.417 C 201 587.746, 200.481 589.006, 199.846 589.218 C 199.053 589.482, 198.582 594.911, 198.341 606.551 C 197.489 647.704, 193.153 663.987, 179.418 677.617 C 168.157 688.793, 157.772 691.955, 132.250 691.983 L 116 692 115.825 662.750 C 115.729 646.663, 115.474 635.503, 115.258 637.950 C 114.962 641.302, 114.617 642.043, 113.857 640.950 C 113.090 639.848, 112.726 639.800, 112.341 640.750 C 112.003 641.581, 109.513 642, 104.917 642 L 98 642 98 645.500 L 98 649 84.750 649.196 C 77.463 649.304, 74.537 649.549, 78.250 649.742 C 83.049 649.990, 85 650.478, 85 651.431 C 85 653.630, 80.350 656, 76.035 656 C 73.301 656, 72 656.438, 72 657.359 C 72 658.359, 69.701 658.862, 63.309 659.260 C 52.492 659.935, 52 660.465, 52 671.457 C 52 684.153, 48.203 689.323, 37.276 691.505 L 31.500 692.658 31.500 697.579 L 31.500 702.500 111.500 702.500 C 174.866 702.500, 192.644 702.222, 197 701.163 C 216.447 696.436, 232.656 685.978, 244.527 670.498 C 249.551 663.948, 257.009 649.738, 259.152 642.631 C 266.200 619.270, 266.809 595.738, 260.873 576.223 C 258.337 567.886, 252.845 556.246, 250.034 553.250 C 247.418 550.463, 244.343 550.345, 243.500 553" stroke="none" fill="#f6e225" fill-rule="evenodd"/><path d="M 609.503 352.288 C 609.219 353.505, 608.877 360.796, 608.743 368.491 L 608.500 382.483 605.516 382.999 C 602.986 383.436, 602.400 384.122, 601.668 387.507 C 601.193 389.703, 600.736 393.525, 600.652 396 C 600.510 400.210, 600.677 400.520, 603.250 400.816 L 606 401.133 606 409.566 C 606 416.926, 605.777 418.002, 604.250 418.015 C 601.258 418.041, 599.632 419.620, 600.505 421.649 C 600.944 422.667, 601.430 424.175, 601.587 425 C 601.744 425.825, 602.336 428.075, 602.903 430 C 603.470 431.925, 605.295 438.675, 606.958 445 C 608.621 451.325, 614.518 473.150, 620.062 493.500 C 625.606 513.850, 630.185 530.970, 630.237 531.544 C 630.290 532.118, 631.019 533.228, 631.857 534.011 C 633.189 535.256, 633.295 535.212, 632.702 533.665 C 632.276 532.555, 632.411 532.136, 633.065 532.540 C 633.637 532.894, 634.923 532.242, 635.920 531.092 C 636.918 529.941, 638.694 529, 639.867 529 C 641.139 529, 642 528.366, 642 527.429 C 642 524.214, 648.237 520, 652.996 520 C 655.009 520, 656.544 518.986, 658.631 516.279 C 660.209 514.233, 661.743 511.645, 662.041 510.529 C 662.749 507.874, 666.651 507.259, 667.351 509.692 C 667.794 511.233, 667.852 511.205, 667.744 509.500 C 667.521 505.989, 669.049 503, 671.067 503 C 672.130 503, 673 502.550, 673 502 C 673 501.450, 674.278 501, 675.840 501 C 678.257 501, 678.873 500.416, 679.973 497.082 C 680.733 494.780, 681.763 493.356, 682.472 493.627 C 684.595 494.442, 682.656 485.536, 668.075 427.500 C 658.035 387.534, 654.177 370.588, 654.602 368.315 C 655.549 363.253, 658.193 361.611, 666.122 361.163 L 673.097 360.769 672.798 355.634 L 672.500 350.500 641.260 350.288 L 610.019 350.076 609.503 352.288 M 753.305 351.645 C 753.064 352.274, 753.009 354.504, 753.183 356.599 C 753.518 360.628, 753.394 360.559, 761.665 361.305 C 763.095 361.434, 763.525 361.868, 762.931 362.583 C 762.362 363.269, 762.521 363.667, 763.364 363.667 C 764.309 363.667, 764.754 361.856, 764.898 357.429 L 765.099 351.191 759.421 350.845 C 755.786 350.624, 753.586 350.912, 753.305 351.645 M 525.721 606.695 C 525.465 607.138, 524.949 612.900, 524.573 619.500 C 522.631 653.658, 516.135 669.493, 499.710 680.109 C 486.223 688.826, 466.889 692.847, 435.500 693.461 C 433.138 693.507, 430 695.921, 430 697.691 C 430 698.376, 429.400 698.707, 428.667 698.426 C 427.911 698.135, 427.333 698.582, 427.333 699.457 C 427.333 700.306, 427.735 701, 428.226 701 C 428.716 701, 428.840 701.450, 428.500 702 C 427.825 703.093, 506.598 703.475, 509.418 702.393 C 510.533 701.965, 511 700.471, 511 697.334 C 511 694.621, 511.391 693.123, 512 693.500 C 512.581 693.859, 513 692.868, 513 691.130 C 513 689.487, 513.675 687.468, 514.500 686.643 C 515.325 685.818, 516 683.536, 516 681.571 C 516 679.178, 516.461 678, 517.399 678 C 518.338 678, 518.916 676.519, 519.157 673.500 C 519.353 671.025, 519.286 669, 519.007 669 C 518.728 669, 518.500 667.875, 518.500 666.500 C 518.500 665.125, 519.063 664, 519.750 664 C 520.438 664, 521 664.900, 521 666 C 521 667.111, 521.667 668, 522.500 668 C 523.611 668, 524 666.833, 524 663.500 C 524 661.025, 524.450 659, 525 659 C 525.550 659, 526 657.525, 526 655.722 C 526 653.682, 526.755 651.798, 528 650.732 C 529.100 649.790, 530 648.115, 530 647.010 C 530 645.904, 530.357 645, 530.794 645 C 532.452 645, 533.720 633.976, 533.612 620.500 L 533.500 606.500 529.843 606.195 C 527.831 606.028, 525.977 606.253, 525.721 606.695" stroke="none" fill="#7de058" fill-rule="evenodd"/><path d="M 937 569.681 C 937 570.239, 935.547 570.737, 933.770 570.787 C 931.994 570.838, 930.381 571.356, 930.187 571.940 C 929.992 572.523, 929.196 573, 928.417 573 C 927.638 573, 927 573.450, 927 574 C 927 574.550, 925.875 575, 924.500 575 C 922.025 575, 921.840 575.365, 921.583 580.750 C 921.538 581.712, 921.246 582.725, 920.935 583 C 920.625 583.275, 917.253 595.736, 913.442 610.691 C 909.631 625.646, 906.248 637.346, 905.923 636.691 C 905.599 636.036, 902.908 626.186, 899.944 614.801 C 896.980 603.417, 894.268 594.566, 893.918 595.133 C 893.567 595.700, 890.452 596.421, 886.996 596.734 C 881.229 597.257, 880.623 597.538, 879.637 600.152 C 879.045 601.718, 878.210 603, 877.781 603 C 877.351 603, 876.988 604.013, 876.974 605.250 C 876.955 606.889, 875.863 608, 872.952 609.343 C 870.325 610.555, 869.048 611.754, 869.228 612.843 C 869.435 614.103, 868.842 614.431, 866.750 614.212 C 865.149 614.045, 864 614.415, 864 615.097 C 864 616.461, 859.346 621, 857.948 621 C 857.427 621, 857 621.374, 857 621.831 C 857 622.288, 855.763 623.294, 854.250 624.067 C 852.737 624.840, 850.498 626.378, 849.274 627.486 C 844.170 632.105, 842.934 633, 841.660 633 C 840.388 633, 842.450 641.322, 856.588 693.250 L 859.243 703 881.399 703 L 903.555 703 907.305 688.750 C 909.368 680.913, 916.192 654.475, 922.469 630 C 928.747 605.525, 934.810 581.938, 935.943 577.585 C 937.076 573.231, 937.777 569.444, 937.501 569.168 C 937.226 568.892, 937 569.123, 937 569.681" stroke="none" fill="#666bf3" fill-rule="evenodd"/><path d="M 965.250 350.739 C 968.413 350.937, 973.587 350.937, 976.750 350.739 C 979.913 350.541, 977.325 350.378, 971 350.378 C 964.675 350.378, 962.087 350.541, 965.250 350.739 M 975.250 400.737 C 971.503 400.999, 970 401.519, 970 402.552 C 970 403.349, 969.502 404, 968.893 404 C 968.284 404, 968.033 404.644, 968.335 405.431 C 968.715 406.422, 968.304 406.751, 967 406.500 C 965.696 406.249, 965.285 406.578, 965.665 407.569 C 965.967 408.356, 965.688 409, 965.044 409 C 964.401 409, 963.972 409.788, 964.091 410.750 C 964.210 411.712, 964.048 413.175, 963.731 414 C 963.414 414.825, 962.464 417.750, 961.620 420.500 C 959.769 426.525, 924.455 567.123, 923.630 571.750 C 923.136 574.515, 923.345 575, 925.025 575 C 926.111 575, 927 574.550, 927 574 C 927 573.450, 927.675 573, 928.500 573 C 929.325 573, 930 572.602, 930 572.117 C 930 570.771, 934.583 570.187, 936.542 571.283 C 937.746 571.957, 938.070 571.922, 937.603 571.167 C 937.234 570.570, 937.392 569.276, 937.955 568.291 C 939.281 565.968, 942.001 555.925, 952.523 514.500 C 957.272 495.800, 963.790 470.600, 967.007 458.500 C 978.624 414.807, 980.994 405.193, 980.780 402.618 C 980.661 401.178, 980.549 400.083, 980.532 400.185 C 980.514 400.287, 978.138 400.535, 975.250 400.737 M 852.250 472.683 C 850.556 473.027, 850 473.836, 850 475.963 C 850 479.295, 849.412 479.583, 840.674 480.518 L 834 481.233 834 484.616 C 834 487.059, 833.553 488, 832.392 488 C 831.199 488, 830.937 488.612, 831.378 490.369 C 832.032 492.976, 828.264 498, 825.655 498 C 824.070 498, 823 500.077, 823 503.153 C 823 506.070, 820.734 507.859, 816.099 508.600 C 812.446 509.184, 811.986 509.568, 811.875 512.128 C 811.806 513.708, 811.638 515.450, 811.500 516 C 811.362 516.550, 811.194 517.280, 811.125 517.622 C 811.056 517.965, 810.212 517.649, 809.250 516.921 C 807.800 515.823, 807.701 515.823, 808.672 516.920 C 809.316 517.648, 809.611 518.976, 809.328 519.872 C 808.882 521.277, 808.957 521.295, 809.878 520 C 810.712 518.828, 810.923 519.265, 810.846 522 C 810.792 523.925, 815.806 543.725, 821.989 566 C 828.172 588.275, 834.847 612.462, 836.822 619.750 C 839.077 628.066, 840.895 633, 841.707 633 C 842.937 633, 844.190 632.087, 849.274 627.486 C 850.498 626.378, 852.737 624.840, 854.250 624.067 C 855.763 623.294, 857 622.288, 857 621.831 C 857 621.374, 857.427 621, 857.948 621 C 859.346 621, 864 616.461, 864 615.097 C 864 614.415, 865.149 614.045, 866.750 614.212 C 868.842 614.431, 869.435 614.103, 869.228 612.843 C 869.048 611.754, 870.325 610.555, 872.952 609.343 C 875.863 608, 876.955 606.889, 876.974 605.250 C 876.988 604.013, 877.351 603, 877.781 603 C 878.210 603, 879.071 601.650, 879.694 600 C 880.652 597.462, 881.360 597, 884.288 597 C 886.192 597, 889.188 596.712, 890.944 596.361 C 893.998 595.750, 894.115 595.553, 893.602 591.884 C 893.030 587.791, 882.703 546.459, 870.770 500.500 L 863.500 472.500 859 472.364 C 856.525 472.289, 853.487 472.433, 852.250 472.683 M 741.123 609.629 C 740.464 611.075, 739.669 612.002, 739.356 611.689 C 739.043 611.376, 738.217 611.653, 737.519 612.304 C 736.505 613.252, 736.629 613.753, 738.143 614.813 C 739.241 615.582, 739.718 616.632, 739.282 617.318 C 738.869 617.968, 738.524 619.400, 738.515 620.500 C 738.504 622.021, 737.722 622.575, 735.250 622.813 C 732.261 623.102, 732 623.408, 732 626.635 C 732 630.418, 730.492 632.568, 727.429 633.152 C 726.343 633.360, 725.360 634.499, 725.180 635.760 C 725.005 636.992, 724.203 638, 723.399 638 C 722.595 638, 721.679 638.672, 721.364 639.494 C 721.048 640.316, 720.388 640.740, 719.895 640.435 C 719.403 640.131, 719 640.590, 719 641.455 C 719 642.890, 718.140 644.942, 715.838 649 C 715.370 649.825, 714.675 651.175, 714.294 652 C 713.298 654.156, 710.847 656.548, 708.250 657.900 C 706.511 658.805, 706 659.942, 706 662.910 C 706 670.345, 705.048 672.740, 701.838 673.382 C 700.213 673.707, 698.348 674.554, 697.692 675.264 C 694.586 678.626, 691.999 683.136, 691.986 685.210 C 691.963 689.065, 690.838 692, 689.383 692 C 688.623 692, 688 692.620, 688 693.379 C 688 694.137, 686.538 695.358, 684.750 696.092 C 680.235 697.945, 677.346 700.746, 678.627 702.027 C 679.266 702.666, 687.015 702.943, 699.501 702.772 L 719.358 702.500 720.210 699.500 C 724.482 684.470, 738.932 624.699, 738.473 623.957 C 738.148 623.431, 738.322 623, 738.860 623 C 739.895 623, 742.154 614.058, 741.419 612.869 C 741.182 612.485, 741.381 612.020, 741.862 611.835 C 743.095 611.362, 744.327 607, 743.228 607 C 742.729 607, 741.782 608.183, 741.123 609.629" stroke="none" fill="#45a4cc" fill-rule="evenodd"/><path d="" stroke="none" fill="#b3c64b" fill-rule="evenodd"/></svg>