<svg xmlns="http://www.w3.org/2000/svg" width="250" height="52" viewBox="0 0 3264 408" version="1.1"><path d="M 946.411 127 C 946.411 136.625, 946.561 140.563, 946.745 135.750 C 946.928 130.938, 946.928 123.062, 946.745 118.250 C 946.561 113.438, 946.411 117.375, 946.411 127 M 123.552 172.142 C 97.891 198.777, 77.136 227.816, 58.903 262.594 C 54.893 270.242, 51.297 276.634, 50.912 276.798 C 50.527 276.962, 50.441 277.969, 50.720 279.037 C 50.999 280.104, 51.579 280.760, 52.009 280.494 C 52.439 280.229, 53.057 280.707, 53.384 281.558 C 53.774 282.574, 53.553 282.889, 52.739 282.478 C 52.057 282.133, 52.281 282.492, 53.234 283.275 C 54.188 284.057, 54.725 284.942, 54.426 285.241 C 53.600 286.066, 56.748 293, 57.949 293 C 58.527 293, 58.893 293.337, 58.762 293.750 C 58.241 295.394, 61.283 300.946, 62.366 300.327 C 62.990 299.971, 63.171 300.043, 62.769 300.487 C 61.755 301.608, 66.090 309.062, 67.316 308.305 C 67.872 307.961, 67.996 308.197, 67.598 308.841 C 67.197 309.490, 68.111 311.155, 69.694 312.659 C 71.237 314.127, 71.891 314.973, 71.146 314.540 C 70.242 314.015, 70.361 314.622, 71.506 316.368 C 72.448 317.806, 73.689 318.692, 74.264 318.337 C 74.839 317.982, 75.037 318.132, 74.704 318.671 C 73.842 320.064, 83.883 332.190, 85.217 331.366 C 85.817 330.995, 86.033 331.137, 85.696 331.683 C 84.979 332.844, 87.651 337, 89.116 337 C 89.667 337, 89.840 336.550, 89.500 336 C 89.160 335.450, 89.118 335, 89.406 335 C 89.694 335, 90.440 335.954, 91.065 337.121 C 91.983 338.836, 91.942 339.092, 90.850 338.457 C 88.287 336.967, 96.530 344.597, 105.812 352.307 C 110.934 356.560, 115.547 359.780, 116.062 359.461 C 116.578 359.143, 117 359.345, 117 359.910 C 117 362.255, 144.059 377.575, 146.528 376.628 C 147.381 376.300, 148 376.637, 148 377.428 C 148 380.242, 175.653 389.308, 195 392.836 C 203.912 394.461, 209.433 394.712, 231.500 394.493 C 255.362 394.256, 258.405 394.024, 268.500 391.669 C 278.470 389.343, 285.898 387.041, 297.594 382.653 C 302.874 380.672, 321.024 371.239, 323.079 369.407 C 323.947 368.633, 324.924 368, 325.249 368 C 327.861 368, 357.537 344.371, 358.686 341.376 C 358.998 340.563, 358.353 338.909, 357.254 337.699 C 356.154 336.490, 355.085 335.030, 354.877 334.455 C 354.670 333.881, 351.674 329.606, 348.220 324.955 C 344.767 320.305, 338.467 311.745, 334.220 305.932 C 314.362 278.749, 311.447 275, 310.175 275 C 309.427 275, 306.044 277.515, 302.657 280.589 C 286.324 295.416, 263.267 307.292, 244.619 310.481 C 206.622 316.980, 169.011 300.990, 143.413 267.454 C 127.545 246.666, 121.203 218.192, 126.101 189.734 C 127.222 183.225, 131.495 169.526, 133.348 166.500 C 134.954 163.880, 137.059 159, 136.585 159 C 136.380 159, 130.516 164.914, 123.552 172.142 M 921.411 201 C 921.411 210.625, 921.561 214.563, 921.745 209.750 C 921.928 204.937, 921.928 197.062, 921.745 192.250 C 921.561 187.438, 921.411 191.375, 921.411 201 M 1093.250 296.745 C 1098.063 296.928, 1105.938 296.928, 1110.750 296.745 C 1115.563 296.561, 1111.625 296.411, 1102 296.411 C 1092.375 296.411, 1088.438 296.561, 1093.250 296.745" stroke="none" fill="#047bf3" fill-rule="evenodd"/><path d="M 207.092 22.083 C 137.317 28.808, 73.645 77.920, 49.033 144 C 45.552 153.347, 42.199 165.222, 40.914 172.751 C 38.843 184.891, 37 201.716, 37 208.488 C 37 219.936, 40.512 245.389, 43.581 256.191 C 46.119 265.120, 50.313 277.001, 50.923 276.988 C 51.240 276.981, 54.199 271.694, 57.497 265.238 C 75.218 230.552, 97.492 199.216, 124.287 171.277 C 131.554 163.700, 139.617 154.337, 142.205 150.471 C 144.794 146.605, 150.644 139.803, 155.205 135.355 C 188.483 102.913, 236.019 95.779, 276.811 117.105 C 286.612 122.229, 296.287 128.774, 303.160 134.930 C 306.273 137.719, 309.300 140, 309.885 140 C 310.471 140, 317.813 130.887, 326.202 119.750 C 334.591 108.612, 345.177 94.563, 349.727 88.528 C 354.277 82.494, 358 77.034, 358 76.394 C 358 74.587, 340.717 60.618, 328.241 52.342 C 291.708 28.107, 250.745 17.876, 207.092 22.083 M 408 198.148 C 388.475 247.174, 371.720 289.246, 370.767 291.643 L 369.033 296 389.267 295.993 L 409.500 295.987 414.880 281.993 L 420.261 268 462.395 268 L 504.529 268 509.964 282 L 515.400 296 535.783 296 C 547.012 296, 556.017 295.607, 555.833 295.125 C 555.650 294.644, 538.866 252.569, 518.535 201.625 L 481.570 109 462.535 109.005 L 443.500 109.010 408 198.148 M 617 202.493 L 617 296 636 296 L 655 296 655 257.500 L 655 219 689.500 219 L 724 219 724 201 L 724 183 689.500 183 L 655 183 655 164.010 L 655 145.020 701.750 144.760 L 748.500 144.500 748.500 127 L 748.500 109.500 682.750 109.243 L 617 108.986 617 202.493 M 808 202.500 L 808 296 877.023 296 L 946.046 296 945.773 278.250 L 945.500 260.500 896.250 260.241 L 847 259.981 847 239.491 L 847 219 884 219 L 921 219 921 201 L 921 183 884 183 L 847 183 847 164 L 847 145 896.500 145 L 946 145 946 127 L 946 109 877 109 L 808 109 808 202.500 M 1013 202.500 L 1013 296 1069.250 295.983 C 1132.490 295.963, 1133.796 295.847, 1147.648 289.020 C 1161.316 282.283, 1170.122 270.336, 1173.651 253.740 C 1175.685 244.178, 1174.992 231.412, 1172.038 224.021 C 1168.944 216.278, 1161.895 206.817, 1155.500 201.822 L 1150.038 197.556 1152.965 194.528 C 1159.598 187.666, 1163.865 171.900, 1162.511 159.256 C 1159.583 131.917, 1145.253 114.291, 1122.542 110.092 C 1118.757 109.393, 1098.010 109, 1064.816 109 L 1013 109 1013 202.500 M 1245 202.500 L 1245 296 1314 296 L 1383 296 1383 278 L 1383 260 1333.500 260 L 1284 260 1284 184.500 L 1284 109 1264.500 109 L 1245 109 1245 202.500 M 1052 164.964 L 1052 183.084 1081.750 182.792 C 1108.649 182.528, 1111.868 182.317, 1115.339 180.594 C 1121.339 177.614, 1124.405 172.103, 1124.839 163.517 C 1125.184 156.690, 1125.062 156.216, 1122.231 153.385 C 1116.978 148.132, 1114.176 147.708, 1081.750 147.257 L 1052 146.844 1052 164.964 M 449.799 194.982 L 436.197 229 463.205 229 C 484.411 229, 490.107 228.731, 489.717 227.750 C 489.444 227.063, 483.725 212.325, 477.010 195 C 470.295 177.675, 464.485 162.930, 464.100 162.232 C 463.702 161.511, 457.539 175.624, 449.799 194.982 M 1052 244.060 L 1052 266.121 1085.750 265.810 L 1119.500 265.500 1125.180 262.837 C 1129.888 260.630, 1131.377 259.269, 1133.884 254.880 C 1139.630 244.819, 1139.066 233.899, 1132.502 228.136 C 1126.080 222.498, 1122.253 222, 1085.318 222 L 1052 222 1052 244.060" stroke="none" fill="#323232" fill-rule="evenodd"/></svg>
